<?xml version='1.0' encoding='utf-8'?>
<svg xmlns="http://www.w3.org/2000/svg" width="1017px" height="1017px" version="1.1" viewBox="29 534 1017 1017"> <g fill="#fff8e4"> <path d="m28.999 533.36c-0.16937 0-0.3318 0.06733-0.45156 0.1871-0.11976 0.11974-0.18704 0.28215-0.18704 0.4515l9.99e-4 1017c0 0.3527 0.28591 0.6385 0.6386 0.6385l1017 1e-3c0.1693 0 0.3318-0.0672 0.4515-0.187 0.1198-0.1197 0.187-0.2822 0.187-0.4515l-1e-3 -1017c0-0.35266-0.2858-0.6386-0.6385-0.6386l-1017-1e-3z"/> </g> <path d="m678.35 669.15c-8.8738 2.3441-16.743 9.46-20.175 18.083-2.6788 6.8646-2.5115 16.408 0.33486 22.687 2.5952 5.7762 6.9483 10.632 12.474 14.148 2.2601 1.5067 4.1019 2.9298 4.1019 3.3484 0 0.335-2.7627 0.8373-6.0274 1.0884-24.277 1.8418-53.829 13.478-75.595 29.635-13.813 10.297-28.965 26.538-39.179 42.109-4.688 7.116-12.976 23.691-14.734 29.3-1.5906 4.9392-2.5952 6.0276-2.5952 2.7627 0-1.4232-1.5069-11.971-3.2649-23.357-1.8417-11.469-3.4324-21.933-3.5997-23.273-0.25109-2.1766-0.92089-2.7627-5.274-4.5208-6.7809-2.6788-21.347-6.446-32.146-8.2877-12.306-2.0929-43.364-2.093-57.01-1e-4 -32.9 5.0229-63.456 17.497-78.776 32.063l-2.93 2.8463-8.3715-4.1857c-32.398-16.576-80.953-19.589-127.08-7.8692-10.213 2.5113-29.3 8.79-36.249 11.887-4.8555 2.0932-5.4415 2.7628-10.381 10.213-2.8463 4.3531-5.5252 8.2041-5.9438 8.4552-0.41858 0.2512-3.8509 0.7535-7.6181 1.0046-4.7718 0.4185-7.4507 1.0045-8.9575 2.1765-1.9254 1.4231-2.0929 2.0092-2.0092 7.7017 0.16742 5.3579 31.393 225.7 32.649 229.46 0.8371 2.8461 4.5206 4.8554 8.7901 4.8554 3.8509 0 36.332-3.2649 78.19-7.953 10.13-1.0882 36.584-3.9348 58.684-6.2787l40.267-4.1856 3.0138 2.8463c1.758 1.5907 4.6044 3.1811 6.7809 3.7672 10.464 2.5952 26.538-1.0046 31.309-7.0322 1.5906-2.0092 2.5952-2.1765 19.924-4.1858 30.807-3.4323 65.884-7.1156 68.312-7.1156h2.344l0.1675 84.72 0.2511 84.803 1.8418 3.4324c2.8462 5.3578 5.9437 8.6226 10.632 11.05l4.2695 2.2602 97.528-2e-4 97.528 1e-4 4.1858-2.2602c5.2741-2.7627 8.2041-5.8601 10.632-11.134l1.9256-4.1857 0.251-88.068 0.1675-88.068 4.8554-1.2557c40.351-11.134 77.269-42.192 96.775-81.371 10.799-21.682 15.571-42.444 15.571-67.391 0-15.99-1.0884-24.863-4.6044-38.844-4.9393-19.505-13.06-37.086-25.198-54.164-6.6972-9.3761-25.7-28.212-35.495-35.16-20.343-14.399-44.369-23.608-70.907-27.208-5.6926-0.7533-10.297-1.5905-10.297-1.8417 0-0.2511 1.758-1.4231 3.8509-2.5114 4.5205-2.4278 9.5435-7.953 12.222-13.311 1.6742-3.3486 1.9253-5.274 1.9253-12.725 0-9.3761-0.92075-12.306-6.0273-19.003-6.5298-8.5392-20.259-12.976-31.309-9.9622zm17.245 7.9529c8.204 3.6836 12.976 10.381 13.645 19.422 0.5023 7.367-1.2556 12.223-6.3623 17.664-2.0929 2.1765-4.0183 4.0182-4.2694 4.0182-0.33487 0-1.0047-2.1765-1.5906-4.8556-1.3395-6.6134-5.1903-10.464-10.548-10.548-6.1111-0.16735-11.385 5.2741-11.385 11.804 0 3.7672-1.5907 3.5161-5.6926-0.92066-4.4369-4.8556-6.1948-8.9576-6.2786-15.152-0.08375-10.715 7.367-20.259 18.25-23.106 3.4324-0.92075 10.213-0.08362 14.232 1.6743zm-6.1951 34.072c0.6698 0.7535 1.2558 4.3533 1.4232 8.7902l0.33486 7.4506h-9.3761v-6.9482c0-4.9392 0.41856-7.4506 1.3395-8.7902 1.5068-2.1765 4.688-2.4278 6.2785-0.5023zm29.719 25.784c52.908 11.218 94.514 48.555 111.26 99.705 19.338 59.103 1.507 120.3-46.88 160.98-15.32 12.892-35.495 23.859-51.736 28.045l-4.7716 1.2556v-14.734l5.6925-1.758c7.7855-2.344 22.519-9.711 31.979-15.99 10.715-7.1994 27.961-24.445 35.077-35.077 12.39-18.668 19.338-37.253 22.268-59.354 3.5159-25.952-1.0885-52.657-13.143-76.767-13.645-27.207-34.574-47.801-62.2-61.112-27.207-13.143-58.349-16.659-88.152-9.9617-42.946 9.627-75.344 35.244-93.928 74.171-12.473 26.119-16.241 54.499-10.883 82.125 0.9209 4.8554 2.2604 10.381 2.93 12.222l1.172 3.4324h-15.571l-1.7579-7.3669c-3.1813-12.892-3.851-19.506-3.7672-34.491 0.08374-21.431 2.6789-34.909 10.716-54.666 15.236-37.839 48.136-69.735 86.226-83.883 20.092-7.4506 33.654-9.6271 57.345-9.2926 15.404 0.25134 19.422 0.6699 28.128 2.5117zm-20.175 19.003c17.078 1.5071 31.895 5.6088 46.462 12.892 27.124 13.646 50.396 38.509 61.447 65.716 17.245 42.36 11.218 89.575-15.906 125.57-14.399 19.087-36.751 35.83-57.68 43.03l-5.8601 2.0091-0.41844-33.57c-0.4186-36.835-0.33486-36.081-5.7765-41.857-5.0228-5.5254 0.33483-5.1067-82.124-5.6089l-74.841-0.4187-1.1721-3.7672c-6.6133-22.436-6.8645-48.304-0.5021-70.237 9.4597-32.398 31.812-61.363 59.605-76.851 15.99-8.9574 36.584-15.403 54.415-16.994 10.632-0.92105 11.385-0.92105 22.352 0.0836zm-213.05 22.938c11.218 1.4231 24.947 4.3531 33.068 7.1994l5.0228 1.7581 4.6044 28.965c2.5114 15.99 4.5206 30.389 4.5206 31.979 0 1.5906-0.66965 7.2832-1.5068 12.557-1.2557 7.7854-1.4232 12.641-1.0884 25.952 0.4186 15.152 1.3396 22.77 4.3533 34.491l0.5859 2.344h-10.632c-12.725 0-16.324 0.9208-21.013 5.4415-5.7764 5.5253-6.1948 8.1203-6.1948 38.09v25.7l-12.725 0.58606c-27.291 1.1719-51.652 6.1112-69.149 13.98-8.0366 3.5996-18.836 11.051-22.519 15.571l-3.0975 3.767-2.2603-14.901c-3.4323-22.938-17.664-117.54-24.11-160.65l-5.7765-38.509 1.7581-2.0091c4.9391-5.2741 18.166-13.394 31.142-18.92 28.212-12.055 64.377-17.162 95.017-13.394zm-194.22 17.245c19.506 1.758 41.02 7.702 53.243 14.65 3.5998 2.0093 6.5298 3.7672 6.6972 3.8509 0.08374 0.1675 2.0929 13.227 4.437 29.133s5.4415 36.249 6.7809 45.206c1.3395 8.9576 5.5252 36.5 9.2087 61.112s7.7855 51.736 9.1249 60.275c1.2557 8.5392 2.2603 15.571 2.1766 15.739-0.0837 0.0836-3.6834-1.5069-8.0366-3.516-19.673-9.2925-48.136-13.646-74.423-11.469-27.877 2.3441-51.736 8.1205-73.251 17.831-5.0229 2.2604-9.7947 4.1858-10.464 4.2694-0.92083 0.1675-1.4232-1.5067-2.1766-6.9483-0.58603-3.9345-4.4369-30.137-8.6226-58.182-4.1858-28.128-10.799-73.083-14.734-100.04-3.9347-26.956-7.367-49.978-7.6181-51.317-0.41861-2.093-0.16748-2.4278 3.5997-4.0184 6.9483-2.93 23.189-8.1204 33.905-10.716 24.528-5.9437 48.052-7.9529 70.153-5.8602zm-106.65 71.912c3.4323 23.273 8.2878 56.173 10.799 73.251 2.5114 16.994 6.6135 45.038 9.2086 62.2 2.5115 17.245 4.6044 32.314 4.6044 33.653 0 1.4232-1.6743 4.7717-4.3532 8.7901-4.0183 5.9438-4.4369 6.2787-4.9392 4.5207-0.33484-1.0883-7.4506-50.48-15.906-109.75l-15.236-107.66 2.9301-3.6835c1.5906-1.9254 3.5997-4.7718 4.5206-6.1112l1.5906-2.5115 0.25113 2.5115c0.16742 1.3394 3.0974 21.515 6.5298 44.788zm-5.9437 78.274c8.7901 61.698 16.241 112.68 16.576 113.18 1.0883 1.7581 3.516 1.3395 23.189-4.353 39.514-11.469 69.4-16.241 100.63-16.324 15.404 0 29.217 1.3393 40.937 4.102 6.6135 1.5069 8.1204 2.1765 7.2833 3.0137-0.50238 0.5024-15.404 2.1767-66.386 7.5342-38.258 3.9347-68.228 7.1996-86.645 9.2926-6.195 0.6697-15.152 1.5067-19.757 1.7581l-8.5389 0.5021-0.50231-2.4277c-0.83716-4.0184-32.314-224.11-32.314-226.11 0-2.0928 1.5069-2.6788 6.2786-2.5113l3.2649 0.16745 15.99 112.18zm535.44-13.562c1.5907 1.0045 3.516 3.181 4.2696 4.7717 1.4231 2.7627 1.5068 11.05 1.5068 136.71 1.4e-4 118.79-0.16734 134.11-1.2557 136.87-1.758 4.1021-4.3532 6.7809-8.3716 8.6226-3.1812 1.5069-7.7854 1.5907-98.365 1.5907-90.412 1e-4 -95.184-0.0837-98.365-1.5906-4.1021-1.8417-7.6181-5.7761-8.7901-9.9619-0.6698-2.1765-0.83716-43.616-0.6698-137.21l0.25109-134.11 1.7579-2.344c0.9209-1.2557 3.0138-3.0138 4.6044-3.7672 2.679-1.4231 9.2086-1.507 101.71-1.5071l98.867-1e-4 2.8463 1.9257zm-216.91 75.344v7.8693l-13.143 1.0045c-32.9 2.595-55.503 7.7018-76.767 17.58-6.3624 2.9301-7.4507 3.1813-9.8784 2.428-1.5069-0.5023-3.2649-1.0882-3.8509-1.172-3.1812-0.8373 8.8738-13.311 17.58-18.25 12.222-6.7809 29.384-11.971 48.639-14.734 14.818-2.0928 16.408-2.1764 28.045-2.3438l9.3761-0.16763v7.7856zm-156.97 10.967c15.906 2.6791 30.054 7.4508 39.179 13.311 4.9392 3.181 5.9438 4.7717 3.0975 4.7717-0.9209 0-3.0975 0.586-4.9392 1.3393-3.0137 1.172-3.7672 1.172-10.632-0.4184-16.073-3.6836-38.174-6.2786-48.052-5.5253-2.0929 0.1675-8.6226 0.5022-14.65 0.7534-22.268 0.9209-53.829 6.3623-79.948 13.813-8.0367 2.344-14.65 4.1021-14.818 3.9347-0.08371-0.0838 1.172-2.1767 2.7626-4.6043 2.7626-4.1021 3.7672-4.8556 13.227-9.2925 21.347-10.213 46.964-16.911 75.009-19.59 7.2832-0.6697 32.314 0.33497 39.765 1.507zm156.97 9.2924c0 5.4415-0.16747 6.2787-1.5068 6.2787-0.75354 0-6.1112 0.5022-11.888 1.172-35.412 4.0181-77.102 8.204-77.52 7.7853-1.0883-1.0882 0.92083-2.2602 10.883-6.3623 19.841-8.1205 42.109-12.557 73.753-14.566 2.3441-0.16736 4.6881-0.3347 5.274-0.41846 0.75353-0.1676 1.0046 1.5905 1.0046 6.1112zm-100.21 14.985c1.5068 0.5859 3.3486 1.8417 4.1857 2.7624 1.5069 1.6744 1.4232 1.758-0.75342 3.5161-3.2648 2.5954-9.7946 4.2696-16.408 4.2696-6.1112 0-11.553-1.6742-11.553-3.5997 0-5.1904 17.162-10.13 24.529-6.9484z"/> <path d="m684.38 763.75c-0.6697 0.75327-0.9209 5.1902-0.7534 13.897 0.2512 11.134 0.41856 12.892 1.758 13.729 1.0045 0.66966 1.8417 0.66966 2.9301 0 1.2556-0.8372 1.4231-2.5951 1.6742-13.729 0.2512-13.143-0.1674-15.069-3.181-15.069-0.83716 0-1.9256 0.50206-2.4279 1.172z"/> <path d="m624.19 778.65c-0.50234 0.50219-1.0045 1.5068-1.0045 2.009 0 1.5907 13.059 21.431 14.65 22.352 1.4231 0.75344 4.6042-1.3395 4.6042-3.0976 0-0.5023-3.0974-5.6089-6.9484-11.385-6.8646-10.464-8.9574-12.222-11.302-9.8784z"/> <path d="m739.63 787.86c-3.6834 5.6925-6.7809 11.134-6.7809 12.139 0 2.344 2.9299 4.102 4.6042 2.7627 1.7581-1.4232 13.813-20.594 13.813-21.933 0-1.5905-1.6744-3.1812-3.4324-3.1812-0.92089 0-3.9347 3.7672-8.2041 10.213z"/> <path d="m684.46 809.63c-0.75344 0.75354-1.0046 8.2041-1.0045 28.463v27.459l-3.0974 1.2556c-1.6743 0.75357-4.2696 2.1766-5.6927 3.265l-2.5114 1.9253-18.334-10.715c-25.533-14.901-26.789-15.571-28.463-14.232-2.344 1.9254-1.5906 4.1857 2.2604 6.6137 2.009 1.2556 12.222 7.1157 22.603 13.143l18.92 10.883 0.08376 5.1902c0 6.1112 1.0045 9.0413 4.0183 12.222 7.8691 8.2878 21.682 7.3669 28.212-1.8417 2.1765-3.0975 2.5114-4.2695 2.5114-9.1249 0-3.0975-0.2511-6.5299-0.58606-7.7019-0.58594-1.8416-0.0836-2.5113 3.7672-5.4414 14.483-11.218 64.963-52.573 65.298-53.494 0.58606-1.5068-1.758-4.8553-3.1811-4.5205-1.0045 0.2511-13.311 10.046-57.01 45.541l-13.562 11.05-4.2694-2.0926-4.2695-2.1768v-27.291c0-28.212-0.16747-29.384-3.3485-29.384-0.75356 0-1.7581 0.41855-2.3441 1.0045zm8.0366 64.879c2.4277 1.507 5.1904 5.9437 5.1904 8.4553 0 9.5435-11.888 14.65-18.585 7.9529-3.516-3.516-4.102-8.9576-1.5068-13.143 1.0046-1.6743 1.8417-3.0137 1.9254-3.0137 0.08377 0 1.6743-0.58604 3.5161-1.172 3.5996-1.3395 6.3623-1.0046 9.4597 0.92076z"/> <path d="m580.66 823.02c-0.58596 0.58593-1.0045 1.8417-1.0045 2.8463 0 1.5906 2.0093 2.9301 11.302 7.8693 9.4599 4.9391 11.553 5.7762 12.976 5.0228 0.9209-0.5023 1.6742-1.7579 1.6742-2.8463 0-1.6743-1.7579-2.8463-11.134-7.9529-6.1112-3.2649-11.553-5.9437-11.971-5.9437-0.5022 0-1.2558 0.41844-1.8418 1.0045z"/> <path d="m780.4 828.04c-8.7063 4.8556-10.715 6.2787-10.715 7.7856 0 1.0882 0.58604 2.4276 1.3395 3.0136 1.2558 1.0045 2.5115 0.58596 9.8784-3.3484 11.469-6.1113 14.734-8.2879 14.734-9.6273 0-1.5068-2.2602-3.8508-3.5997-3.8508-0.58595 0.0836-5.7764 2.7624-11.636 6.0272z"/> <path d="m564.75 881.62c-0.5023 0.50234-1.0046 1.6743-1.0046 2.4276 0 2.8464 2.0091 3.3487 13.813 3.0975 9.962-0.2511 11.636-0.4187 12.473-1.758 0.6699-1.0046 0.6699-1.8416 0-2.93-0.83706-1.2557-2.5951-1.4232-12.557-1.6744-8.3716-0.16726-11.971 0.0837-12.725 0.83726z"/> <path d="m783.33 881.12c-1.3395 0.5861-1.4232 3.851-0.08377 5.1904 0.66967 0.66965 4.6881 1.0045 12.474 1.0045 12.306 0 13.729-0.50219 13.143-4.353-0.2511-1.9255-0.41843-1.9255-12.39-2.093-6.6972-0.0837-12.641 0.0839-13.143 0.2511z"/> <path d="m770.36 930.09c-0.83714 0.41856-1.5068 1.5069-1.5068 2.344 0 2.0094 1.5068 3.1814 11.971 9.1252 9.5436 5.4414 11.469 6.0274 13.143 3.9345 1.9254-2.344-0.08373-4.3532-9.8784-9.8782-11.553-6.53-11.887-6.6138-13.729-5.5255z"/> <path d="m733.02 966.17c-0.5022 0.5023-1.0045 1.5068-1.0045 2.1765 0 1.9256 12.892 21.933 14.483 22.436 1.9254 0.5859 3.9346-1.0884 3.8508-3.3488 0-0.92077-2.9299-6.2784-6.5298-11.804-6.446-10.046-8.4552-11.804-10.799-9.4598z"/> <path d="m448.64 813.81c-18.501 1.8416-41.188 8.0365-56.257 15.32-7.618 3.6834-9.2086 5.3577-8.1203 8.2877 0.75348 2.0092 2.0092 1.6743 8.8738-1.9253 6.6134-3.6 19.673-8.3716 29.886-10.967 22.603-5.7764 51.736-7.032 71.576-3.1811 4.4369 0.83714 5.023 0.7535 6.0275-0.58596 1.7579-2.344 0.08374-4.1858-4.8555-5.274-11.804-2.5952-31.226-3.265-47.132-1.6743z"/> <path d="m451.15 847.13c-21.598 2.5115-47.801 10.046-58.852 17.078-2.7626 1.6742-3.516 2.6788-3.3487 4.1019 0.41858 2.8462 2.7626 2.6788 10.13-0.921 13.06-6.3622 30.054-11.05 49.141-13.646 11.72-1.5907 38.76-1.423 48.136 0.33495 9.8783 1.8416 11.05 1.8416 11.72-0.33495 0.9209-2.7627-1.0046-3.8507-9.6272-5.3576-9.2924-1.6743-37.002-2.3441-47.299-1.256z"/> <path d="m462.03 881.2c-14.818 1.0046-36.332 5.3579-48.973 9.9623-10.464 3.6833-19.254 8.4551-19.254 10.381 0 3.2648 2.5952 3.4322 9.1249 0.3347 20.51-9.6272 44.536-14.566 71.074-14.566 12.306 0 18.166 0.5023 33.402 3.0139 3.0138 0.41846 3.5997 0.2511 4.437-1.3396 1.5068-2.8463-0.08386-3.8508-8.2041-5.3577-14.566-2.5952-27.793-3.3487-41.606-2.4278z"/> <path d="m459.77 915.86c-18.082 1.5069-37.002 6.0274-51.736 12.39-8.6227 3.6834-10.548 5.1067-9.7947 7.1158 1.0046 2.5114 3.0975 2.4278 8.8738-0.251 16.241-7.4508 38.844-12.641 59.856-13.73 4.6881-0.16735 6.6135-2.009 5.023-4.6042-1.0883-1.7581-2.0092-1.8418-12.222-0.9209z"/> <path d="m454.67 950.6c-14.985 2.1769-39.597 9.6276-47.801 14.399-2.8462 1.6743-3.7672 4.353-1.9254 5.8601 0.92084 0.83691 2.5114 0.41846 7.4507-1.8417 15.069-6.8648 37.923-12.557 55.168-13.646l9.5435-0.6698v-5.0227l-7.1158-0.1676c-3.9346 0-10.799 0.41846-15.32 1.0881z"/> <path d="m257.43 830.47c-10.213 1.0882-21.766 3.5998-32.481 7.032-10.381 3.2652-12.474 4.6044-11.134 7.1996 1.172 2.1765 2.5952 2.0093 11.302-0.92075 17.999-6.1112 39.597-8.8738 61.531-8.0368 15.487 0.5858 22.687 1.6742 35.998 5.5252 10.046 2.93 11.971 2.8464 11.553-0.50205-0.25117-1.9256-1.0046-2.4279-6.5299-4.1859-15.655-5.1903-23.357-6.2787-43.95-6.6134-10.548-0.16746-22.436 0.08364-26.287 0.5022z"/> <path d="m264.13 863.96c-11.05 1.172-23.022 3.851-34.323 7.7018-11.05 3.7672-13.227 5.3577-10.799 7.8693 1.4232 1.3393 2.0929 1.172 12.139-2.0929 30.64-10.13 66.051-11.134 98.114-2.8462 8.2878 2.0928 8.7064 2.1765 9.711 0.6697 0.66968-0.8372 0.92084-2.0092 0.66968-2.6789-0.83716-2.2604-20.092-7.0321-34.742-8.6228-9.4598-1.0882-30.556-1.0046-40.769 0z"/> <path d="m268.82 898.62c-12.808 1.5905-21.347 3.4324-32.984 7.1996-12.39 4.0183-14.985 6.0275-10.967 8.6227 1.0046 0.5859 3.8509 0 10.716-2.2605 31.644-10.548 70.237-11.72 100.88-3.181 4.0183 1.172 6.2786 1.4231 7.2832 0.83714 1.9254-1.0046 1.9254-3.8511 0.08374-4.7717-2.344-1.2558-19.255-5.1066-28.296-6.4461-10.213-1.5069-33.988-1.5069-46.713-1.4e-4z"/> <path d="m274.51 931.85c-11.636 1.2558-25.617 4.5207-35.914 8.2879-10.716 3.9347-12.808 5.609-10.297 8.0368 1.4232 1.4231 1.758 1.3394 7.9529-0.92105 18.501-6.8645 32.481-9.5436 54.164-10.297 17.496-0.5861 31.561 0.6698 44.955 4.0184 5.5252 1.423 10.799 2.4276 11.804 2.2603 2.5114-0.33496 2.93-3.5999 0.66967-4.7719-3.0137-1.6742-22.101-5.86-30.389-6.7808-9.6272-1.0049-33.402-0.92105-42.946 0.16711z"/> <path d="m277.86 966.01c-10.213 1.172-23.022 4.0184-32.063 7.0321-12.725 4.3532-12.725 4.3532-12.725 6.781-3e-5 3.181 1.8417 3.3485 8.2878 1.0045 18.752-6.9484 33.737-9.2924 59.522-9.3761 20.678 1e-4 26.119 0.58616 42.192 4.3531 8.3714 1.9254 9.1248 2.0093 10.381 0.75344 3.2649-3.2649-2.2603-5.7762-20.343-8.9574-7.8693-1.4231-14.232-1.8418-29.3-2.0092-10.548-0.1676-22.268 0-25.952 0.41845z"/> <path d="m523.81 953.78-2.344 2.009v25.701l-1.5e-4 25.7 2.3442 2.009 2.344 2.0094 87.064-2e-4 87.064 1e-4 2.0929-2.093 2.0929-2.0929-0.2511-25.617-0.25124-25.617-2.344-2.009-2.344-2.0094h-86.561l-86.562 1.2e-4 -2.344 2.0094zm174.55 26.454c0.08373 11.72 0 22.184-0.25107 23.273l-0.4186 1.8418-84.804-0.16746-84.72-0.25124-0.2511-23.273-0.16734-23.189 85.138 0.16713 85.222 0.2512 0.25107 21.347z"/> <path d="m527.25 1027.5c-4.102 1.8417-4.6881 4.4369-4.3532 20.175l0.2512 13.98 2.344 2.009c2.2604 1.9256 2.6789 2.0092 17.413 2.0092h15.152l4.8556-4.8556-1.2e-4 -14.734c0-14.231-0.08374-14.734-2.0091-16.994l-2.0092-2.344-14.566-0.1674c-10.799-0.1674-15.152 0.0837-17.078 0.9208zm28.965 18.501 1e-4 12.976h-26.788l-1.4e-4 -12.976v-12.976l13.394-1e-4 13.394 1e-4v12.976z"/> <path d="m574.13 1027.5c-1.4231 0.6697-2.8463 1.8417-3.2649 2.679-0.66966 1.8417-0.5859 29.886 0.1675 31.812 1.1721 3.0138 4.7718 3.6835 19.506 3.6835 19.506 0 18.417 1.172 18.417-19.589v-15.403l-2.5952-2.1768c-2.5115-2.1765-2.7626-2.1765-16.073-2.1765-9.4597 0.0838-14.315 0.4186-16.157 1.172zm28.547 18.501 1e-4 12.557-12.976-1e-4 -12.976 1e-4 -0.25135-12.808-0.2511-12.808 13.227 0.251 13.227 0.2511v12.557z"/> <path d="m621.84 1027.1c-4.1021 1.5905-4.5206 3.5161-4.5206 19.087v14.566l2.4278 2.4278 2.4277 2.4278 14.734 1e-4c14.232 0 14.734-0.0836 16.994-2.0092l2.3441-2.009 0.25095-13.311c0.50234-21.85 0.335-22.017-19.673-21.933-7.2832 0-14.064 0.3347-14.985 0.7533zm28.128 18.836 1.2e-4 13.06-13.143-0.251-13.227-0.2513-0.2512-11.72c-0.08374-6.3625 0-12.139 0.1675-12.725 0.3348-0.8375 3.5997-1.0883 13.478-1.0883l12.976-1e-4v12.976z"/> <path d="m667.97 1027.2c-3.5997 2.0092-3.7672 2.9301-3.7672 18.92 1e-4 20.762-1.2556 19.506 19.254 19.506l15.236-1e-4 2.4277-2.4278 2.4279-2.4278-1e-4 -14.734c0-14.231-0.08376-14.734-2.0092-16.994l-2.0091-2.344-14.985-0.251c-9.8784-0.0837-15.487 0.1674-16.576 0.7534zm28.882 18.752 1.2e-4 12.976h-26.789v-25.952l13.394-1e-4 13.394 1e-4v12.976z"/> <path d="m527.08 1073.6c-1.4232 0.6697-3.0976 2.1767-3.5161 3.3487-0.5022 1.2556-0.8372 8.4551-0.8372 15.99v13.897l4.8555 4.8554h14.734c8.9575 0 15.487-0.3348 16.659-0.9209 3.4322-1.5906 3.9345-4.1021 3.9347-19.171 0-13.729-0.08376-14.232-2.0093-16.492l-2.0092-2.344-14.566-0.1676c-11.218-0.1675-15.069 0-17.245 1.0045zm28.965 18.585-0.2511 13.227-12.976-2e-4 -12.976 2e-4 -0.25122-13.227-0.2511-13.143 13.478-2e-4 13.478 2e-4 -0.2511 13.143z"/> <path d="m574.13 1073.5c-1.4232 0.6696-2.8464 1.758-3.0975 2.4277-0.2511 0.7534-0.58594 8.204-0.6697 16.659l-0.0837 15.236 2.1765 1.9255c2.1766 1.8417 2.8463 1.9254 17.329 1.9254 20.426 0 19.171 1.2559 19.171-19.506v-15.404l-2.1765-2.0093c-2.093-1.9253-2.5952-2.0089-16.073-2.1765-10.464-0.1675-14.65 0.0837-16.576 0.9209zm28.547 18.92-1e-4 12.976-12.976-1e-4 -12.976 1e-4 -0.2511-13.227-0.2512-13.227 26.454 0.5023v12.976z"/> <path d="m622.6 1072.9c-1.0883 0.1673-2.679 1.3393-3.5998 2.5113-1.5068 2.0094-1.6743 3.3488-1.6743 17.162 0 20.259-1.172 19.087 19.171 19.087 14.734-1e-4 15.152-0.0838 17.413-2.0092l2.344-2.0092 0.2511-12.473c0.4187-16.492-0.0836-19.171-3.4322-21.264-2.344-1.4234-4.1858-1.5907-15.655-1.5071-7.1158 0.0837-13.813 0.3349-14.818 0.5022zm26.956 19.506-1.4e-4 12.976h-25.952l-0.2512-12.139c-0.0836-6.6136 0-12.558 0.1675-13.144 0.3348-0.9206 3.2649-1.088 13.227-0.9205l12.808 0.251v12.976z"/> <path d="m667.89 1073.5c-1.4232 0.6696-2.8463 1.758-3.1813 2.5952-0.2511 0.7534-0.5022 8.2877-0.5022 16.743l-1e-4 15.404 2.1766 1.6742c2.0929 1.5906 3.3487 1.758 16.743 1.758 8.8738 0 15.32-0.3348 16.492-0.9209 3.4324-1.5905 3.9347-4.102 3.9347-19.171 0-13.729-0.08374-14.232-2.0092-16.492l-2.0093-2.344-14.566-0.1674c-10.883-0.1675-15.152 0.0837-17.078 0.9209zm28.798 18.668-0.25125 13.227-12.976-1e-4 -12.976 1e-4 -0.2511-12.138c-0.08375-6.6135 0-12.558 0.1675-13.143 0.3348-0.8371 3.5997-1.0882 13.478-1.0882l13.06-2e-4 -0.2511 13.143z"/> <path d="m527.16 1119.2c-3.6836 1.507-4.437 4.6882-4.437 19.59 0 13.562 0 13.813 2.1766 16.324l2.1766 2.5952 15.822-2e-4c21.347 0 20.008 1.2558 20.008-19.254v-15.236l-2.4277-2.4276-2.4277-2.4278-14.566 0.0837c-7.953 0-15.32 0.3349-16.324 0.7534zm28.882 19.004-0.2511 13.227h-25.952l-0.41856-12.808c-0.25124-7.1158-0.25124-13.06-0.08376-13.227 0.16746-0.1674 6.3623-0.3348 13.646-0.3348l13.311-2e-4 -0.2511 13.144z"/> <path d="m574.04 1119.2c-3.3488 1.3395-3.851 3.7672-3.7672 18.417 0 7.6181 0.0836 14.399 0.0836 15.152 0.08374 0.6697 0.83716 2.0929 1.7581 3.0975 1.6743 1.758 2.344 1.8417 17.496 1.8417 20.761 0 19.338 1.5069 19.338-19.422v-15.571l-2.5952-2.1766c-2.5115-2.1766-2.6789-2.1766-16.492-2.0929-7.7018 0-14.818 0.3348-15.822 0.7534zm28.63 19.255v12.976h-25.952l-0.2512-12.139c-0.0836-6.6135 0-12.557 0.1675-13.143 0.33495-0.9209 3.2649-1.0884 13.227-0.9209l12.808 0.2511v12.976z"/> <path d="m621.84 1119.2c-4.1021 1.6745-4.5206 3.5161-4.5206 19.506 0 20.175-1.2557 19.003 19.506 19.004l15.404-3e-4 2.0092-2.1765c2.0091-2.0929 2.0091-2.4276 2.0091-17.58 0-20.426 1.2558-19.087-18.25-19.338-7.8692-0.0836-15.236 0.1672-16.157 0.5858zm27.71 19.255v12.976l-12.976 2e-4 -12.976-2e-4 -0.2512-12.139c-0.0836-6.6135 0-12.557 0.1675-13.143 0.3348-0.9209 3.2649-1.0882 13.227-0.9208l12.808 0.251v12.976z"/> <path d="m667.89 1119.5c-1.4232 0.6698-2.8463 1.758-3.1812 2.5952-0.2511 0.7534-0.5023 18.668-0.5023 39.765l1e-4 38.425 2.1765 1.6743c2.0929 1.5906 3.3487 1.7581 17.245 1.7581l15.069-1e-4 4.8555-4.8554v-75.428l-4.0184-4.6881-14.566-0.1673c-10.883-0.1675-15.152 0.0837-17.078 0.9208zm28.965 41.523c1.2e-4 19.506-0.33473 35.83-0.66953 36.165-0.4187 0.4186-6.3624 0.5859-13.227 0.5022l-12.474-0.2511-0.2512-35.16c-0.08365-19.338 0-35.663 0.2512-36.248 0.2511-0.8372 3.4324-1.0047 13.394-0.8372l13.059 0.2511-0.08362 35.579z"/> <path d="m524.82 1167.9-2.1767 2.5951 0.2512 14.566 0.2512 14.65 2.344 2.0091c2.344 1.9255 2.6788 2.0092 17.58 2.0092 10.632-0.0837 15.655-0.3348 16.576-1.0884 2.8462-2.1766 3.2649-4.6045 3.2649-18.166 0-13.98-0.75356-17.58-3.7672-18.752-0.75342-0.2511-8.2878-0.5023-16.743-0.5023h-15.32l-2.2603 2.6789zm31.226 16.324 0.25124 12.808h-26.872v-12.39c0-6.8648 0.2511-12.725 0.58604-13.06 0.33486-0.2512 6.2786-0.4186 13.143-0.3348l12.641 0.2511 0.2511 12.725z"/> <path d="m572.29 1167.2c-1.7581 1.8417-1.8418 2.6788-1.8418 17.496v15.655l2.1766 1.6743c2.0928 1.5906 3.3485 1.7581 17.245 1.7581 20.259 0 19.087 1.172 19.087-19.254 0-20.51 1.2557-19.255-19.506-19.255-14.985 0-15.404 0.0838-17.162 1.9256zm30.64 17.078 0.2512 12.808h-26.872v-12.39c0-6.8647 0.2511-12.725 0.58605-13.06 0.33485-0.2512 6.2787-0.4186 13.143-0.3349l12.641 0.2511 0.251 12.725z"/> <path d="m619.42 1167.3c-2.0929 2.0091-2.0929 2.1766-2.0929 17.162 0 20.51-1.2559 19.254 19.505 19.255l15.404-2e-4 2.0091-2.1766c2.0092-2.0929 2.0092-2.4277 2.0092-17.078 0-14.65 0-14.985-2.0092-17.078l-2.0091-2.1767-15.404 2e-4c-15.236-2e-4 -15.404-2e-4 -17.413 2.0928zm30.388 16.994 0.2511 12.808-13.227-0.2511-13.227-0.2513-0.2511-11.72c-0.0837-6.3624 0-12.139 0.1675-12.725 0.33484-0.9208 3.2649-1.0881 13.227-0.9206l12.808 0.2509 0.2511 12.808z"/> <path d="m859.68 935.79c-4.6881 2.0927-7.1157 7.2832-7.1157 15.571-0.08385 4.9392-0.08385 5.0228-3.3487 7.116-2.1765 1.2556-4.0183 3.4322-5.2741 5.86l-1.8417 3.7671-0.25124 138.3-0.16746 138.3 7.0321 24.696c3.9347 13.478 8.1204 28.463 9.2924 33.235 1.1721 4.7718 2.7627 9.1251 3.5161 9.711 2.2604 1.7581 4.1021-0.0837 5.1903-5.3578 0.5861-2.6788 4.6881-17.329 9.125-32.481l8.1204-27.626 0.2512-72.581 0.25086-72.581 2.7627-0.9207c1.5904-0.5024 4.4369-2.5953 6.2786-4.6043 6.0277-6.5298 6.0277-6.5298 5.7765-58.684-0.2511-44.62-0.33483-46.043-2.0092-48.89-1.9254-3.2649-7.1994-6.697-10.464-6.697-2.0928 0-2.1765-0.1675-2.7625-6.5299-0.7535-9.7109-1.758-12.222-5.9437-15.906-3.7672-3.2648-3.7672-3.3485-3.7672-8.8739 0-6.2786-1.2558-10.046-4.4369-12.892-2.2604-2.1765-7.5344-3.0974-10.213-1.9251zm7.1157 7.5342c0.4187 0.92089 0.83714 3.9346 0.83714 6.6972v5.1067h-4.1856l-4.1859 1.3e-4v-5.1067c0-6.3623 1.0047-8.2877 4.1859-8.2878 1.5904 0 2.7624 0.58594 3.3485 1.5906zm7.032 20.343c2.3441 2.0928 3.851 7.8693 3.851 14.566v3.6836l-14.65-1e-4 -14.65 1e-4v-5.86c0-11.804 2.5115-14.232 14.818-14.232 7.6181 0 8.7901 0.16747 10.632 1.8417zm3.851 150.1v125.99l-14.65-1e-4 -14.65 1e-4 1e-4 -125.99-1e-4 -125.99 14.65-1e-4 14.65 1e-4v125.99zm10.883-124.74c1.3395 0.66967 2.8463 2.009 3.3487 2.8463 0.50244 1.0882 0.83728 17.58 0.83728 47.299 0 40.1-0.1676 46.127-1.3396 49.057-1.172 2.8464-4.8553 6.6973-6.5296 6.6973-0.25124 0-0.50234-24.11-0.50234-53.578 0-36.835 0.2511-53.578 0.83714-53.578 0.50234 0 2.0092 0.58605 3.3485 1.2557zm-11.72 257.59c0 0.5861-2.5113 10.046-5.6089 20.929l-5.6926 19.924-2.5114-1e-4 -2.5952 1e-4 -5.6925-19.924c-3.1812-10.883-5.9437-20.343-6.1113-20.929-0.33484-0.7534 2.7627-1.0045 13.897-1.0045 10.883 0 14.315 0.2511 14.315 1.0045zm-13.394 48.806c0 0.6698-0.1676 1.2557-0.33485 1.2557-0.1676 0-0.5024-0.5859-0.83727-1.2557-0.2511-0.6697-0.08373-1.2556 0.33487-1.2556 0.5024 0 0.83725 0.5859 0.83725 1.2556z"/> <path d="m787.43 1021.7c-1.5904 1.9255-2.8463 5.5252-6.446 18.166-0.75344 2.6788-1.6743 4.8555-2.0929 4.8555-1.4231 0-3.0974 4.353-7.6179 19.673l-4.5206 15.069v272.32l1.9254 2.5952c1.5906 2.1765 1.8416 3.5998 1.8416 10.297 0 14.064 4.5206 18.25 19.673 18.25 9.7947 0 14.064-1.5068 17.245-5.9437 1.758-2.5115 2.009-3.9346 2.2602-11.636 0.25122-7.618 0.58607-9.0411 2.0929-10.715l1.8418-2.0092 0.2509-135.87 0.1676-135.87-4.6045-16.157c-2.5114-8.8737-5.1902-16.994-5.7762-17.915-0.6698-1.0045-2.5114-6.6973-4.1858-12.641-2.2602-8.2877-3.516-11.218-5.1066-12.725-2.8463-2.4278-4.9392-2.3441-6.9484 0.2511zm6.1112 14.901c0.8372 3.0973 1.3395 5.86 1.0884 6.1112-0.2512 0.2511-2.1768 0.3349-4.2695 0.1675l-3.7672-0.2513 2.1766-6.9483c1.2557-4.0183 2.4277-6.5299 2.679-5.86 0.33485 0.586 1.2556 3.5997 2.0928 6.7809zm4.3532 12.976c0.5023 0.3351 2.5114 6.0276 4.4369 12.725 1.8417 6.697 3.5997 12.808 3.8509 13.562 0.4186 1.4232-0.66966 1.5068-15.487 1.5068-12.222-1e-4 -15.99-0.2512-15.99-1.0883 0-1.5907 6.4461-23.608 7.4506-25.617 0.9209-1.5907 1.6743-1.758 7.8692-1.758 3.7672 0 7.2832 0.3348 7.8692 0.6696zm9.4599 152.53v118.88l-17.162-1e-4h-17.162l-1e-4 -118.88 1e-4 -118.88 17.162 1e-4h17.162l1.4e-4 118.88zm0 137.29v11.72l-16.911-0.1673-16.994-0.2514-0.2511-11.553-0.2511-11.469h17.245l17.162 2e-4v11.72zm-3.3485 25.115c0 6.1948-0.1676 6.8646-2.4278 9.3761l-2.4278 2.7625-8.8739-1e-4c-8.5388 1e-4 -8.8738-0.0836-11.134-2.344-2.0929-2.093-2.344-2.93-2.6788-9.3761l-0.25125-7.1158h13.897l13.897 1e-4v6.6973z"/> <path d="m422.27 1065.3c-43.616 4.0185-99.202 9.125-140.56 12.809-39.765 3.5997-40.351 3.6833-40.937 8.9573-0.16742 1.7581-1.2557 3.0976-3.5997 4.7718-2.1766 1.5071-4.0183 3.7673-5.1066 6.195-1.5069 3.516-1.6743 4.688-0.9209 10.046l0.75345 6.1112-4.3532 2.5115c-4.9392 2.7626-7.8692 6.8646-7.8692 11.05 0 5.7764 6.1112 11.553 12.306 11.553 2.5115 0 2.6789 0.1674 3.2649 3.9345 0.50229 3.2649 0.33487 4.102-0.92086 4.8556-5.274 3.0975-6.9483 4.6043-8.6226 8.1205-1.6743 3.3486-1.8417 4.2694-1.0046 7.1994 1.172 4.5206 5.5252 8.2877 10.297 8.9574 3.6834 0.586 3.7672 0.586 4.2695 4.4369 0.41858 3.1811 0.25113 4.1021-0.83718 4.7717-9.7946 5.944-12.725 12.139-8.7063 18.585 2.0929 3.4323 4.7718 5.1903 9.2923 5.9435 3.5998 0.5861 3.6835 0.6697 3.9346 4.102 0.25116 3.2649 0.08371 3.6834-3.0137 5.6089-11.302 7.1158-9.5435 21.682 2.7626 23.524 3.3486 0.5023 3.5998 0.7535 4.102 3.5998 0.75345 4.688 0.66974 4.9391-2.0092 6.0275-3.516 1.4231-8.2041 6.9484-8.7901 10.297-0.66971 3.6836 1.9255 10.046 4.7718 11.553 1.0046 0.5859 3.5998 1.4231 5.6926 2.0092 3.6835 0.9209 3.7672 1.0046 4.0183 4.7718 0.25113 3.516 0.08371 3.8509-2.2603 4.8554-1.4231 0.5859-3.9346 2.5114-5.5252 4.2695-2.4277 2.6788-2.93 3.9346-2.93 6.8646 0 1.9254 0.5023 4.4369 1.0883 5.6089 1.4232 2.7627 5.7763 5.6089 9.7947 6.2787 3.0975 0.5022 3.3486 0.7534 3.3486 3.1811 0 1.5069 0.2511 3.4323 0.50229 4.4369 0.33484 1.3395-0.41858 2.1767-3.5998 4.2696-8.8738 5.4414-9.4598 16.408-1.0883 21.096 1.758 1.0046 4.102 1.758 5.274 1.758 2.2603 0 3.0974 1.6743 3.0974 6.2787 0 2.0091-0.586 2.8463-3.0974 4.1856-4.6043 2.4279-6.9483 6.4461-6.9483 11.72 0 3.1813 0.50229 5.0231 1.758 6.6137 2.0929 2.6788 5.7763 4.688 8.6226 4.688 1.172 0 2.2603 0.2511 2.5114 0.6696 0.16748 0.3349 0.92089 5.7764 1.6744 12.139 1.758 14.734 3.3486 17.999 10.716 21.096 4.2695 1.758 9.2087 1.5906 31.896-0.8373 59.773-6.3624 95.1-10.046 134.11-13.897 23.942-2.3442 45.541-4.6044 48.052-5.1065 7.1996-1.3397 13.478-8.3716 13.478-15.152 0-0.6697 1.2557-3.1813 2.8463-5.5253 4.7717-7.0321 4.8555-4.1857-2.0092-61.196-0.92077-7.618-2.4276-20.259-3.3485-28.045-0.9209-7.8692-3.3488-28.547-5.4415-46.043-2.0093-17.496-6.3624-54.248-9.6273-81.622-3.2649-27.375-6.446-54.582-7.1157-60.442-0.66968-5.8601-1.5906-12.222-2.0929-14.064-1.3394-5.0231-7.032-10.381-12.641-12.055-5.3578-1.5905-3.1812-1.758-39.262 1.6744zm39.681 5.6088c6.2787 3.516 6.0275 2.2604 12.808 59.522 10.046 85.473 19.255 163.24 22.938 193.47 1.8417 15.655 3.2648 30.64 3.0974 33.235-0.33498 5.1067-1.7581 7.4507-5.8601 9.5437-1.4231 0.7535-20.594 3.0137-52.322 6.1949-27.542 2.7625-57.01 5.7764-65.549 6.6972-19.589 2.1766-56.424 6.2788-74.841 8.3716-13.562 1.5906-14.315 1.5906-17.162 0.1675-1.6742-0.7534-3.4323-2.3441-4.0184-3.5161-0.50225-1.172-1.5906-8.1204-2.2602-15.487-0.75348-7.3668-1.5906-14.483-1.7581-15.822l-0.41858-2.4277 4.3531 0.5861c5.3578 0.7534 9.0413 2.5951 9.0413 4.5205 0 0.8371-1.0883 2.5952-2.5115 3.9347-2.8463 2.7625-3.1812 5.0229-1.0046 6.1949 3.516 1.9254 9.3761-4.3531 9.3761-10.046 0-6.1948-6.9483-10.799-16.324-10.799l-3.516-1e-4 -1.0046-10.632c-0.58598-5.9437-1.2557-12.222-1.5068-13.98l-0.50238-3.2647 4.437 0.5022c4.6043 0.586 8.1204 2.344 8.9575 4.437 0.25116 0.7534-0.58603 2.4275-2.2604 4.1018-4.4369 4.6044-2.0929 9.2087 3.0137 5.8601 8.0367-5.2741 6.5298-15.822-2.5951-19.003-2.344-0.7534-5.9438-1.4232-8.1204-1.5068l-3.9346-1e-4 -0.41858-4.4369c-0.33484-2.344-1.0046-8.6226-1.5906-13.813l-1.0882-9.3761 3.3486-1e-4c4.1858 1e-4 9.2087 2.3441 9.5436 4.5207 0.16742 0.8372-0.83716 2.6788-2.3441 4.2696-2.7626 2.8463-3.0137 5.1065-0.75342 6.5297 3.2649 2.0928 9.125-4.9392 9.125-10.799 0-6.1112-4.3532-9.2086-14.232-10.213l-5.4415-0.5861-0.92085-7.9529c-0.50225-4.3531-1.172-10.715-1.5069-14.148l-0.586-6.195 4.4369 0.5861c4.6044 0.5859 7.953 2.2604 8.7901 4.3531 0.25116 0.6697-0.75341 2.5115-2.2602 4.1858-4.2695 4.8555-2.0929 9.1249 3.0137 5.7764 8.0366-5.274 6.5297-15.822-2.5952-19.003-2.3441-0.7534-5.9438-1.4231-8.1205-1.5068-2.2603 0-4.0183-0.2511-4.0183-0.6697-0.08374-0.3349-0.75342-6.5299-1.5069-13.813l-1.5069-13.143 3.5998-2e-4c2.0092 2e-4 4.9391 0.5861 6.5298 1.1722 3.7672 1.5905 3.8509 4.2694 0.41852 7.618-2.7626 2.6791-3.0137 5.1068-0.66968 6.6136 3.0975 1.9256 9.2086-5.274 9.2086-10.799 0-6.1111-5.6089-10.129-14.985-10.799l-4.8555-0.3348-0.92084-7.4507c-0.50229-4.0183-1.172-9.8784-1.5069-13.06l-0.66971-5.6089 3.3486-1e-4c4.3532 1e-4 8.3715 1.507 9.4598 3.5161 0.75342 1.4232 0.50232 2.1767-1.758 4.4369-5.1066 5.2741-1.0046 9.9622 4.2695 4.9392 8.3715-7.9529 1.9254-18.752-11.134-18.752-4.0183 0-4.8555-0.2511-4.8555-1.5068-0.0837-0.7534-0.75347-7.032-1.5069-13.897-1.6743-13.729-1.6743-13.646 3.5998-12.808 4.3532 0.6697 7.5344 2.5115 7.7855 4.3532 0.08367 0.9209-0.9209 2.93-2.344 4.5206-3.0974 3.2649-3.0974 6.1949-0.16742 6.6135 3.7671 0.5859 8.5389-5.6927 8.5389-10.967 0-5.7762-5.1904-9.6271-14.148-10.464l-5.5252-0.586-1.4232-11.72c-2.0929-16.994-2.344-15.655 2.93-14.985 4.6043 0.586 7.8692 2.1767 8.7064 4.1857 0.2511 0.6698-0.83716 2.5952-2.5952 4.5207-1.6743 1.8417-3.0138 3.6834-3.0138 4.0184 0 1.172 2.0092 2.6788 3.5998 2.6788 2.5115 0 7.0321-5.1067 7.7855-8.7064 1.2557-7.0321-3.9346-11.636-14.232-12.725-3.0138-0.3349-5.5252-0.8372-5.5252-1.0884s-0.586-4.4369-1.2557-9.2925c-0.66968-4.8552-1.2557-9.6269-1.2557-10.632 0-2.0929-3.0138-1.6743 38.928-5.274 34.239-3.0137 134.86-12.139 150.69-13.729 16.911-1.758 21.18-1.5906 25.031 0.5859zm-219 32.565c0.41858 4.2696 0.75342 7.8693 0.75342 7.8693-0.08371 0.0837-1.5068 0.3348-3.1812 0.6697l-3.0137 0.5023-0.586-5.1903c-0.41861-4.6044-0.25119-5.5252 1.5906-8.3715 1.172-1.758 2.4278-3.1811 2.8463-3.1811 0.3349 0 1.0883 3.5158 1.5906 7.7016zm3.0974 27.04c0.83723 7.1994 1.3395 13.227 1.0884 13.478-0.25113 0.1675-1.5906 0.7535-3.0974 1.1721-2.1766 0.586-2.5952 0.5023-2.5952-0.6697-0.08377-0.7534-0.75348-6.8647-1.5069-13.478l-1.5069-11.971 1.6743-0.6698c4.2695-1.758 4.2695-1.5905 5.9438 12.139zm-12.976-7.1995c0 1.2559 0.25116 4.1858 0.58599 6.3624l0.50233 3.9346-2.8464-0.586c-3.0137-0.586-5.7763-3.0975-5.7763-5.1904 0-1.4231 5.274-6.9482 6.6135-6.9482 0.50229 0 0.92084 1.0883 0.92084 2.4276zm16.827 41.272c0.83713 7.4507 1.4231 13.646 1.3395 13.729-0.08377 0-1.3395 0.3348-2.8464 0.5859-3.0974 0.5861-2.93 1.0882-4.4369-13.227-0.50232-4.6042-1.0883-9.5434-1.3394-11.05-0.33487-2.5115-0.16746-2.7627 2.344-3.4324 1.5068-0.4186 2.93-0.6697 3.0974-0.5023s1.0046 6.3623 1.8417 13.897zm-12.306-2.8463c0.586 5.274 0.586 5.3578-1.3394 4.7717-6.3623-1.9253-7.6181-6.1947-3.0137-10.046 3.1811-2.6791 3.5997-2.1767 4.3532 5.2739zm15.99 35.746c0.83713 7.1996 1.3394 13.143 1.172 13.311-0.16745 0.1674-1.5069 0.5022-2.93 0.7533l-2.5115 0.5023-1.4232-12.725c-1.758-15.236-1.758-13.813 0.08368-14.232 4.102-1.0883 4.0184-1.2558 5.609 12.39zm-12.39-3.5997c0.41861 3.3486 0.66974 6.2787 0.58603 6.3623-0.16742 0.1675-1.4232 0.0837-2.8464-0.2511-3.1812-0.6697-5.3577-3.767-4.6043-6.3622 0.58599-1.8419 4.3532-5.7765 5.5252-5.7765 0.33484 0 0.92084 2.7626 1.3394 6.0275zm14.818 25.952c0.25116 1.507 0.83718 6.53 1.3395 11.134s1.0883 9.5435 1.3394 11.05c0.3349 2.5116 0.16748 2.7627-2.344 3.4324-1.5069 0.4186-2.8463 0.6697-2.93 0.586-0.08371 0-0.75344-5.3577-1.5069-11.804-0.66968-6.3624-1.4232-12.641-1.6743-13.897-0.25116-1.5906 0.08371-2.3442 1.0883-2.5953 3.516-0.9208 4.2695-0.5859 4.688 2.0929zm-10.883 7.116c0.25113 3.516 0.33484 6.5297 0.25113 6.6973-0.92084 0.837-5.86-1.9256-6.5298-3.6836-1.2557-3.2649 2.0929-9.2925 5.1904-9.4599 0.2511 0 0.75342 2.8464 1.0883 6.4462zm15.906 36.416c1.758 15.236 1.758 15.739-0.2511 15.739-0.92088 0-2.1766 0.1673-2.7626 0.4184-0.92084 0.335-1.4232-2.344-2.5952-13.059-1.5906-14.483-1.5068-14.985 2.4278-14.985 1.6743 0 1.8417 0.7534 3.1811 11.888zm-12.474-3.7672c0.3349 2.679 0.75345 5.5253 0.9209 6.2787 0.50226 1.8418 0.25113 1.8418-3.4324 0.3348-3.516-1.5068-4.8555-3.8508-3.8509-6.6135 0.75342-1.9253 3.8509-4.7717 5.274-4.7717 0.25113 0 0.83718 2.1766 1.0883 4.7717zm14.985 27.207c0.586 2.5116 3.0137 25.282 2.7626 25.45-0.0837 0.0837-1.3394 0.4186-2.8463 0.6698-3.0974 0.6697-3.0137 1.0045-4.4369-13.729-0.50233-4.8555-1.0883-9.7947-1.3395-11.05-0.33487-1.6744-0.08374-2.2604 1.0883-2.5952 3.2649-0.8372 4.4369-0.5861 4.7718 1.2556zm-10.967 7.953 0.58603 5.1067-2.7626-0.7535c-5.274-1.5069-6.195-5.3577-2.1766-9.3761 3.0974-3.0974 3.6835-2.5115 4.3532 5.0229zm15.571 32.23c0.50232 4.7718 1.1721 10.967 1.4232 13.729l0.58598 5.1903-2.6789 0.5861c-1.5069 0.3348-2.8463 0.4185-3.0137 0.2512-0.25123-0.335-2.93-23.356-2.93-25.701 0-1.5906 1.2557-2.2602 4.2695-2.5113 1.0883-0.0838 1.5069 1.5068 2.344 8.455zm-12.139-0.8371c0.75348 6.7809 0.66977 8.2041-0.75342 8.2041-1.8417 0-5.4415-3.7672-5.4415-5.7764 0-1.6743 3.7672-6.7809 4.9392-6.7809 0.41855 0 0.92084 2.0093 1.2556 4.3532zm15.069 29.3c0.25122 2.0091 1.0883 9.4598 1.8418 16.576 0.75342 7.1159 1.8417 13.897 2.4277 15.069 1.5069 2.8463 5.3578 6.446 8.2042 7.4507 3.516 1.3393 6.6135 1.172 29.97-1.5906 20.008-2.344 72.413-7.9532 108.75-11.72 8.9575-0.9207 23.691-2.4277 32.649-3.3486 32.398-3.3485 38.928-3.9346 39.262-3.6834 0.16748 0.1674-0.08374 1.2558-0.58606 2.4278-1.8417 3.9346-5.1064 5.1066-17.915 6.1949-22.268 1.9253-61.949 5.86-109.5 10.967-93.928 10.046-86.31 9.3762-90.245 7.8693-2.2602-0.8372-4.0182-2.1765-4.7717-3.6835-0.75348-1.4231-2.0929-10.213-3.3486-21.096-1.0883-10.297-2.2603-19.84-2.5115-21.347-0.41858-2.4277-0.25115-2.6789 1.8417-3.0138 1.2557-0.1673 2.5952-0.4186 2.93-0.5022 0.33483 0 0.75343 1.5069 1.0046 3.4323zm-10.967 6.8646 0.50232 5.6926-2.2604-0.5859c-3.3486-0.8373-4.3532-2.0093-4.3532-4.8555 0-2.6789 4.0183-7.8692 5.1066-6.6972 0.25113 0.4185 0.75342 3.2648 1.0046 6.446z"/> <g fill="#e48337"> <path d="m249.59 1109.2c3e-5 4e-4 3e-5 5e-4 3e-5 5e-4v-5e-4zm203.64-40.352c-3.6191 0-8.694 0.4028-16.337 1.1973h-4.3e-4c-15.829 1.5912-116.44 10.715-150.68 13.729h5.2e-4l-14.419 1.2348h-2e-5c-23.623 2.0274-24.893 2.1571-24.755 3.7587v2e-4c0.00421 0.049 0.00873 0.0912 0.01385 0.1399v1e-4c0.00522 0.0494 0.0105 0.0993 0.01477 0.1493 0.00617 0.0718 0.01038 0.143 0.01038 0.2176 0 1.0244 0.5896 5.8181 1.2578 10.663l0.33896 2.4538 0.28409 2.0565c0.3717 2.6949 0.62725 4.5793 0.63052 4.7511h3e-5c0 0.1254 0.0845 0.2035 0.1207 0.2332h9e-5c0.38983 0.3194 2.8541 0.7753 5.6067 1.0813l0.00122 1e-4c9.8371 1.0396 14.823 5.2663 14.153 11.61-0.02938 0.2781-0.0698 0.562-0.12105 0.849h-1.2e-4c-0.74963 3.561-5.2155 8.5189-7.5615 8.5189-1.5311 0-3.3723-1.4622-3.3723-2.4514h0.00104c0.06613-0.3289 1.3057-2.0528 2.9533-3.8651 1.7172-1.8808 2.9507-3.9253 2.6401-4.7538l-3e-3 -0.0077c-0.89088-2.138-4.2842-3.7379-8.8876-4.3238h-3e-5c-0.38498-0.0489-0.78231-0.1076-1.1077-0.156-0.28479-0.0422-0.55826-0.0828-0.8038-0.114-0.327-0.0415-0.62357-0.0692-0.89118-0.0692-1.2916 0-1.7754 0.6841-1.7754 2.6684 0 1.7567 0.36545 4.6733 0.95722 9.4022 0.13391 1.07 0.28042 2.2409 0.43637 3.5071l1.4232 11.72c0.01278 0.1051 0.09643 0.1875 0.20177 0.1987l5.5252 0.586 0.00285 2e-4c8.9281 0.8346 13.942 4.6503 13.942 10.238 0 4.9884-4.322 10.778-7.8114 10.778-0.15703 0-0.31224-0.0116-0.4651-0.0354l-0.00278-4e-4c-1.5067-0.2152-2.1321-1.1086-1.9516-2.3728h3e-5c0.15222-1.0654 0.88257-2.4158 2.2518-3.8591l0.00449-0.0049c1.4254-1.593 2.4943-3.6672 2.4011-4.6929l-0.00116-0.0101c-0.27617-2.0254-3.6458-3.8807-7.9755-4.547h3.2e-4c-0.03282-0.0053-0.04488-0.0072-0.04875-0.0078h4.5e-4c1.3e-4 0-0.0066-1e-3 -0.04672-0.0073h-3e-4c6e-5 0-0.0831-0.0132-0.09948-0.0158h3.6e-4c-0.96671-0.1534-1.7777-0.2794-2.4212-0.2794-1.634 0-2.2365 0.833-2.2365 3.2706 0 1.9781 0.38437 5.126 0.98105 10.019l0.00992 0.0811h-3e-5c0.52707 4.8025 1.0166 9.3499 1.2882 11.872 0.10675 0.9919 0.1789 1.6623 0.21073 1.9521 0.00472 0.0432 0.00375 0.0344 0.00769 0.0699h-0.00127c0.013 1.5089 1.21 1.7092 5.0828 1.7092 8.9566 0 14.665 5.1065 14.665 10.742 0 2.5248-1.1382 5.1961-3.6872 7.6177l-2.2e-4 3e-4c-1.5651 1.4905-2.9943 2.0822-4.0709 2.0822-1.309 0-2.1512-0.8736-2.1512-2.2405 0-1.1937 0.64917-2.7802 2.2704-4.4555h-1e-4c2.264-2.2641 2.631-3.1309 1.7982-4.7041l-0.00104-0.0019c-1.1538-2.13-5.296-3.6351-9.6598-3.6352l-3.3486 1e-4c-0.06502 0-0.12692 0.0279-0.17007 0.0764-0.04319 0.0486-0.06345 0.1134-0.05575 0.178l0.66945 5.6067 5e-5 5e-4h2e-5l1.8e-4 0.0017h-3e-5c0.33551 3.1861 1.0044 9.0394 1.5071 13.061l0.92082 7.4504c0.01332 0.1081 0.10143 0.1916 0.21007 0.199l4.8555 0.3348h0.00116c9.3457 0.6681 14.772 4.6538 14.772 10.572 0 4.8427-4.7636 10.891-7.828 10.891-0.37497 0-0.7194-0.09-1.0301-0.2825h-5e-5c-1.6922-1.0878-1.9506-2.6603-0.74482-4.5361 0.35474-0.5517 0.83787-1.1296 1.4498-1.7231l4.9e-4 -4e-4c2.6267-2.5626 3.3458-4.8881 1.6445-6.632-0.50897-0.5217-1.2229-0.9739-2.1333-1.3583l-0.00984-0.0039c-1.614-0.5948-4.5699-1.1861-6.6084-1.1862l-3.5998 1e-4c-0.06484 0-0.12658 0.0277-0.16974 0.0761-0.04315 0.0483-0.0636 0.1128-0.0562 0.1772l1.5069 13.144h-4e-5c0.75094 7.2583 1.4222 13.476 1.5118 13.841h-0.0026c9e-3 0.0628 0.03336 0.1191 0.06598 0.1676h2e-5c0.3298 0.4892 2.1702 0.6756 4.1729 0.6759h-0.00263c2.1536 0.0833 5.7308 0.7484 8.0565 1.496h-4e-5c6.3064 2.2012 8.8754 7.958 7.1338 12.954-0.73664 2.1129-2.2476 4.1034-4.5938 5.643h6e-5c-1.2465 0.8174-2.2911 1.1558-3.0826 1.1558-1.1763 0-1.8489-0.7461-1.8489-1.9686 0-1.2024 0.66143-2.8577 2.2115-4.6213h-4e-5c1.4727-1.6364 2.6133-3.5935 2.3041-4.4177l-0.0018-0.0046c-0.88895-2.2223-4.3659-3.9079-8.9716-4.4942h1.3e-4l-4.4369-0.586c-0.00994-0.0014-0.0199-2e-3 -0.02982-2e-3 -0.05847 0-0.11514 0.0225-0.15777 0.0636-0.04987 0.0481-0.07515 0.1162-0.06861 0.1852l0.586 6.1949 6e-5 8e-4c0.33533 3.4375 1.0044 9.7932 1.5073 14.152l0.92084 7.9529c0.01223 0.1056 0.09591 0.1886 0.20156 0.2l5.4415 0.586 0.00134 3e-4c9.8592 1.0027 14.027 4.0687 14.027 9.9869 0 5.0878-4.4672 10.949-7.588 10.949-0.42485 0-0.82323-0.1083-1.1868-0.3413l-0.00157-1e-3c-1.6146-1.0166-1.8703-2.4625-0.67513-4.3606h-4e-5c0.35852-0.5693 0.84762-1.1764 1.4706-1.8182l0.00189-0.0021c1.49-1.5729 2.5879-3.4896 2.4039-4.4604h-2e-4c-0.36562-2.3765-5.593-4.7135-9.7684-4.7137l-3.3486 2e-4c-0.06487 0-0.12667 0.0277-0.16983 0.0761-0.04316 0.0485-0.06357 0.1131-0.0561 0.1775l1.0883 9.3761h3e-5c0.15329 1.3578 0.32083 2.8671 0.47815 4.2844 0.15338 1.3818 0.31397 2.8278 0.45618 4.0875 0.26384 2.3371 0.49826 4.3356 0.65704 5.4471h-2.4e-4l0.41754 4.426c0.01102 0.1169 0.1091 0.2061 0.22644 0.2061l3.9318 1e-4h-0.00268c2.154 0.0832 5.73 0.7483 8.0563 1.496h-3e-5c6.3063 2.201 8.8754 7.9574 7.1339 12.953-0.73663 2.113-2.2476 4.1035-4.594 5.6433h9e-5c-1.1982 0.7856-2.2193 1.1095-3.0097 1.1095-1.2599 0-1.9956-0.8214-1.9956-2.1022 0-1.2182 0.67557-2.8532 2.2772-4.5165h-1.2e-4c1.6565-1.6565 2.6165-3.4309 2.3153-4.3344l-0.00458-0.0126c-0.88889-2.2223-4.534-3.9918-9.14-4.5781l-0.00317-4e-4 -4.4096-0.4982h-0.00268c-0.01617-0.0036-0.03293-0.0056-0.05005-0.0056-0.00586 0-0.01178 3e-4 -0.01772 8e-4 -0.11842 0.0091-0.20985 0.108-0.20985 0.2268h1.5e-4c-3e-5 0.0118 8.3e-4 0.0236 0.00266 0.0355h-2.2e-4c0.00186 0.0121 0.00464 0.0238 0.00831 0.0351h-0.00269l0.49684 3.2287h-4e-5c0.25079 1.7573 0.91918 8.0234 1.5053 13.968h4e-5l1.0045 10.631c0.01105 0.1168 0.1091 0.206 0.22641 0.206l3.516 1e-4c9.3446 0 16.097 4.5796 16.097 10.572 0 4.9053-4.4244 10.173-7.7264 10.173-0.46486 0-0.90706-0.1044-1.313-0.3267l-0.00143-7e-4c-1.3705-0.738-1.668-1.9162-0.82566-3.4806 0.38486-0.7146 1.0081-1.5034 1.8783-2.3485h-2e-5c1.4247-1.3408 2.583-3.1585 2.583-4.1003 0-2.1575-3.9536-4.0028-9.237-4.7458l-0.00136-1e-4 -4.3531-0.586c-0.01014-0.0014-0.0203-0.0021-0.03037-0.0021-0.06133 0-0.12058 0.0248-0.16373 0.0696-0.05026 0.0521-0.07266 0.1251-0.06036 0.1965l0.41858 2.4277h-2.5e-4c0.16968 1.3597 1.0052 8.4646 1.7562 15.807 0.66824 7.3502 1.7576 14.34 2.2775 15.554l0.00562 0.0121c0.61514 1.2302 2.4191 2.8526 4.1285 3.6218h-3.4e-4c1.4031 0.701 2.326 1.0673 4.4724 1.0673 2.2422 0 5.8478-0.3999 12.808-1.2162h2.2e-4c18.528-2.1054 55.14-6.1826 74.841-8.3715h-7.4e-4c8.5389-0.9209 38.004-3.9343 65.547-6.697h-4e-5c31.658-3.1741 50.904-5.4362 52.403-6.2185 4.1832-2.1344 5.6443-4.5563 5.9836-9.7314v-3e-4c0.16908-2.6217-1.2585-17.635-3.0985-33.276l-1.2e-4 -8e-4c-3.6839-30.225-12.892-107.99-22.938-193.46l-3e-5 -2e-4 -0.34347-2.9011-0.32019-2.7045c-5.9671-50.389-6.0595-50.638-11.883-53.878h-7e-5c-0.10616-0.059-0.26424-0.147-0.37557-0.2094h9e-5c-2.1555-1.2182-4.4329-1.8114-8.8293-1.8114z"/> <path d="m270.07 1352-0.01171 0.0014-0.00686 0.0026h-0.00264c-0.34666 0.085-1.6731 0.3331-2.9152 0.4987l-0.00124 1e-4c-2.0064 0.321-2.2815 0.5868-1.9434 2.6995 0.01987 0.1242 0.0383 0.2341 0.06177 0.3702 0.25088 1.5052 1.4228 11.048 2.5111 21.344l2e-5 4e-4c1.255 10.877 2.5949 19.68 3.3539 21.113h-3e-5c0.76114 1.5215 2.5319 2.8669 4.7976 3.7062h-1.9e-4c0.28852 0.1104 0.50327 0.211 0.71488 0.31 0.17419 0.0814 0.34579 0.1614 0.52347 0.2295h3e-5c0.52511 0.2012 1.1704 0.3296 2.5908 0.3296 4.8414 0 18.783-1.4924 68.07-6.7697h-3e-5l18.367-1.9659 4e-5 -1e-4c47.544-5.1061 87.236-9.0418 109.5-10.967h-6e-5c12.801-1.0878 16.099-2.2583 17.955-6.2225l6.1e-4 -0.0015c0.49353-1.1515 0.77259-2.2843 0.57575-2.4809l-0.00518-0.0045c-0.0602-0.0451-0.23-0.061-0.51997-0.061-1.9919 0-10.607 0.8234-38.776 3.7349h3e-5l-32.649 3.3486h-1.5e-4l-0.03809 0.0041h1.2e-4c-36.325 3.7664-88.713 9.3739-108.71 11.716h-6e-5c-14.255 1.686-20.965 2.4051-24.822 2.4051-2.461 0-3.7612-0.2922-5.125-0.8117l-0.00113-4e-4c-2.8327-0.9997-6.6744-4.5894-8.177-7.4267-0.58104-1.1622-1.6689-7.9312-2.4229-15.052-0.75396-7.1202-1.59-14.562-1.8419-16.576l-4e-5 -3e-4c-0.24626-1.888-0.66266-3.4743-1.0525-3.4743z"/> <path d="m265.88 1318.5c-0.02819 0-0.05247 8e-4 -0.08157 0.0032h-2e-4c-3.009 0.2507-4.3075 0.9219-4.3075 2.5527 0 2.3352 2.6651 25.268 2.9341 25.719l4.6e-4 7e-4c0.00266 0.0043 0.00147 0.0024 0.0038 0.0055l0.00383 0.0044c0.0708 0.0708 0.27792 0.0958 0.55005 0.0958 0.56128 0 1.4964-0.1123 2.502-0.3358h-1.2e-4l2.6789-0.5861 0.03234-0.0451-0.58599-5.1904c-0.19349-2.1279-0.63215-6.2624-1.0539-10.239-0.12648-1.1928-0.25348-2.3903-0.36928-3.4903l-1e-4 -6e-4c-0.81262-6.7454-1.2282-8.4946-2.3068-8.4946z"/> <path d="m261.52 1285c-0.69375 0-1.5936 0.1611-2.7551 0.4589l-0.00108 3e-4c-1.2026 0.3436-1.4544 0.9592-1.1176 2.6433 0.2508 1.2539 0.83631 6.189 1.3388 11.046l0.0671 0.6949 0.06355 0.6582c1.0313 10.677 1.2421 12.658 2.884 12.658 0.34172 0 0.74422-0.0862 1.223-0.1911h-1.2e-4c1.8e-4 0 0.16717-0.0362 0.24822-0.0539h-7.8e-4c1.4912-0.2487 2.7592-0.5822 2.8659-0.6786l0.00119-0.0011 0.00138-0.0014h2.1e-4c0.00833-0.0077 0.01251-0.0168 0.01443-0.0214 0.21518-0.5199-2.1843-22.969-2.7654-25.465h-5e-5c-0.21927-1.2057-0.79889-1.7473-2.0679-1.7473z"/> <path d="m257.85 1251.4c-2.4553 0-3.437 0.2077-3.437 3.8191 0 2.2071 0.36328 5.698 0.96875 11.211 1.1052 10.105 1.6111 13.123 2.4921 13.123 0.0523 0 0.10473-0.0104 0.15753-0.0296l0.0021-8e-4c0.5785-0.2479 1.8275-0.4152 2.7466-0.4152 1.0679 0 1.5806-0.1605 1.5806-2.4061 0-2.0895-0.43955-6.016-1.289-13.378v-3e-4c-1.3355-11.101-1.5002-11.923-3.2216-11.923z"/> <path d="m253.94 1217.2c-0.64709 0-1.4946 0.1673-2.6273 0.464h-3e-5c-1.0364 0.2593-1.3702 1.0446-1.1181 2.641l2.7e-4 0.0016c0.2507 1.2535 1.0039 7.5298 1.6737 13.893l3e-5 5e-4c0.73804 6.3139 1.3974 11.605 1.5059 11.812 0.00113 0.0026 0.00967 0.0192 0.02753 0.0254h-0.00247c0.00146 9e-4 0.00298 0.0017 0.00466 0.0026 0.0249 0.0128 0.06317 0.0157 0.10462 0.0157 0.34509 0 1.5378-0.2396 2.8481-0.6035h-4e-4c2.5306-0.6748 2.7116-0.9445 2.3739-3.4771l-1.8e-4 -0.0013c-0.25085-1.5051-0.83682-6.4437-1.3391-11.048-0.5022-4.6037-1.0883-9.6272-1.3397-11.136-0.28433-1.8198-0.72879-2.59-2.1113-2.59z"/> <path d="m250.19 1184.6c-0.54239 0-1.2145 0.179-2.0696 0.4064v1e-4l-0.16056 0.0427h-3e-4c-0.15442 0.0351-0.29126 0.0564-0.42132 0.0767-0.10468 0.0164-0.20878 0.0328-0.29725 0.0528-1.0189 0.2317-0.90643 1.1088 0.21808 10.775 0.12177 1.0468 0.24589 2.1133 0.39048 3.3665l1.4232 12.724 0.04306 0.0314 2.5115-0.5023h-1.3e-4c1.4152-0.2497 2.7703-0.5848 2.9486-0.7631l1.5e-4 -3e-4c0.00253-0.0026 0.00592-0.0067 0.00842-0.0106h-6e-5c0.16571-0.2627-0.3407-6.1961-1.1702-13.33l-0.07022-0.6028-0.06677-0.5729c-1.108-9.5049-1.389-11.694-3.2871-11.694z"/> <path d="m247.79 1150.6c-0.5173 0-1.6544 0.2268-2.8393 0.5559h3.7e-4c-2.5284 0.6742-2.7079 0.9419-2.3706 3.472l1.8e-4 0.0012c0.25095 1.5058 0.83679 6.4438 1.3391 11.048l0.15244 1.4506 0.13193 1.2558c0.95895 9.1099 1.1869 10.777 2.7194 10.777 0.32516 0 0.70565-0.0747 1.1613-0.1637h3e-5c0.10346-0.0202 0.20276-0.0396 0.31391-0.0608h-1.6e-4c1.0447-0.174 1.9672-0.3879 2.4648-0.5033 0.1828-0.0423 0.30917-0.0716 0.35861-0.0798h3.3e-4c0.01023-0.0018 0.01575-0.0023 0.01621-0.0023h4.3e-4l0.02539-0.0104c0.00797-0.0078 0.01065-0.0165 0.01196-0.0209l6e-5 -1e-4c0.06965-0.2351-0.51468-6.3844-1.3409-13.738-0.83139-7.4828-1.6645-13.671-1.8466-13.912h3e-5c-0.00168-0.0022-0.00342-0.0042-0.00427-0.0051l-0.02625-0.0116 0.02494 0.0102c-0.0484-0.0483-0.15793-0.0628-0.2934-0.0628z"/> <path d="m242.65 1117.6c-0.64276 0-1.4662 0.3285-2.5603 0.779h3e-5l-1.674 0.6697-0.02246 0.0381 1.5069 11.971c0.64282 5.6422 1.2273 10.943 1.4346 12.823v1e-4c0.03534 0.3205 0.06021 0.5458 0.0723 0.6545h-2.4e-4c6.1e-4 0.7188 0.16213 1.057 0.80749 1.057 0.3988 0 0.98563-0.1283 1.8333-0.3565h2.8e-4c1.5064-0.4184 2.8531-1.0069 3.1078-1.1769l0.00549-0.0045c0.26764-0.2674-0.24307-6.3282-1.078-13.508l-3e-5 -2e-4 -0.02262-0.1856-0.02221-0.1822c-1.2034-9.8678-1.5349-12.579-3.3884-12.579z"/> <path d="m241.36 1095.7c-0.44422 0-1.7134 1.4513-2.8778 3.1979l-3e-4 5e-4c-1.8477 2.8556-2.0156 3.7858-1.5965 8.3954l9e-5 9e-4 0.586 5.1903 0.04374 0.0329 3.0137-0.5023 0.00122-2e-4c0.48785-0.0977 0.86215-0.1702 1.2908-0.2534 0.28332-0.0551 0.68225-0.1329 0.8963-0.1757 0.55468-0.111 0.94388-0.1953 1.0077-0.246h9e-5c-9e-5 0 0.00433-0.0037 0.00443-0.0038l0.01205-0.0313c0-2e-4 -0.33551-3.6064-0.75345-7.8694l-9e-5 -9e-4c-0.49798-4.15-1.2488-7.7349-1.6281-7.7349z"/> </g> <g fill="#ebdb9f"> <path d="m276.86 830.2c2.2898 0 4.5934 0.0166 6.852 0.0525h-1.2e-4c20.574 0.33434 28.246 1.42 43.867 6.5992l0.0032 0.0011c5.5773 1.7745 6.1136 2.237 6.3378 3.9562 0.1869 1.497-0.10943 2.12-1.2636 2.2642h2e-5c-0.16542 0.0207-0.35028 0.03134-0.55662 0.03134-1.6759 0-4.5767-0.69704-9.3778-2.0973l-5.8e-4 -2.5e-4c-13.336-3.8582-20.557-4.9493-36.064-5.5359h1.2e-4c-2.5653-0.0979-5.1223-0.1466-7.6734-0.1466-19.289 0-38.027 2.7891-53.958 8.198h-3e-5c-4.8397 1.6287-7.3743 2.3823-8.8658 2.3823-1.1212 0-1.6118-0.42383-2.0982-1.3254h-7e-5c-0.67291-1.3037-0.4581-2.2448 1.9657-3.4957 1.7711-0.91407 4.6462-1.9391 9.0042-3.3098l0.00141-4.8e-4c10.698-3.4265 22.235-5.9343 32.426-7.0203h5.8e-4c3.0105-0.32727 10.991-0.5531 19.4-0.5531zm8.3978 33.256c7.5725 0 14.987 0.25185 19.607 0.78334l0.00177 1.2e-4c14.783 1.6051 33.75 6.3905 34.51 8.4424l3.8e-4 0.00109c0.2059 0.54896 0.0038 1.6189-0.6263 2.4066l-0.01428 0.01954c-0.42192 0.6328-0.67908 0.90563-1.5213 0.90563-1.1554 0-3.284-0.52807-7.8879-1.6907h3e-5c-14.379-3.7168-29.431-5.5676-44.424-5.5676-18.49 0-36.898 2.8154-53.848 8.4192h3e-5c-6.3439 2.0618-8.8938 2.8661-10.257 2.8661-0.73757 0-1.0974-0.23705-1.593-0.70226h-4.9e-4c-0.99231-1.0265-1.0943-1.7601-0.2157-2.6095 1.2889-1.2458 4.6259-2.6614 10.904-4.8019h-3e-5c11.282-3.8444 23.232-6.5185 34.26-7.6883h1.8e-4c5.1958-0.51096 13.224-0.7838 21.103-0.7838zm7.8552 34.313c8.8086 0 17.289 0.37686 22.375 1.1272h-1.5e-4c9.055 1.3416 25.912 5.1876 28.205 6.416l0.00699 0.00366c1.1698 0.5847 1.5206 2.0776 0.94865 3.2217-0.2149 0.4299-0.5592 0.80406-1.0367 1.0532l-0.06704 0.0492 0.04554-0.03504h-0.0034c-0.2846 0.16114-0.71838 0.2583-1.3495 0.2583-1.2222 0-3.0683-0.36206-5.7017-1.1301l-0.0032-8.4e-4c-13.603-3.791-28.763-5.6704-44.186-5.6704-19.388 0-39.198 2.9702-56.854 8.8554h-1.2e-4c-5.245 1.7272-8.096 2.4586-9.5684 2.4586-0.44498 0-0.72796-0.06763-0.90668-0.16786h-7.3e-4c-1.5786-1.0195-1.8969-1.7865-1.4083-2.5431 0.92901-1.4384 4.7083-3.1146 12.309-5.5798h6e-5c11.617-3.7611 20.14-5.5997 32.931-7.188h-8e-5c6.3457-0.75146 15.46-1.1282 24.265-1.1282zm4.3341 33.494c7.8275 0 15.468 0.23194 19.978 0.70264h-1.7e-4c8.2941 0.92175 27.324 5.1039 30.282 6.7472l0.00707 0.0038c1.3045 0.67636 1.6092 2.1134 1.0817 3.1306-0.293 0.56505-0.847 1.0088-1.6599 1.1172l-0.03725 0.00766 0.02087-0.00466h-0.00342c-0.05215 0.0076-0.12844 0.0127-0.2306 0.0127-1.4481 0-6.3165-0.94834-11.447-2.2696l-0.00193-4.7e-4c-11.311-2.8279-23.097-4.1657-37.005-4.1657-2.6017 0-5.2663 0.04666-8.027 0.13907h-3.3e-4c-21.71 0.75427-35.719 3.4382-54.251 10.314h1e-4c-3.5563 1.2978-5.1195 1.8504-6.0663 1.8504-0.64575 0-0.98755-0.26014-1.5925-0.865l-0.00336-0.0033c-1.0327-0.9983-1.159-1.7327-0.32053-2.6001 1.2232-1.2654 4.45-2.7455 10.519-4.9741h3e-5c10.276-3.7594 24.233-7.019 35.848-8.2726l0.00165-2.4e-4c5.0418-0.57483 14.081-0.8695 22.908-0.8695zm-1.8917 34.545c2.7157 0 5.5304 0.0209 8.2484 0.0641l0.00131 1e-4c15.064 0.16726 21.409 0.58596 29.254 2.0047l0.00131 2.4e-4c15.612 2.7466 21.376 4.9564 20.98 7.2098-0.06718 0.38172-0.31575 0.80556-0.78593 1.2758-0.50321 0.5032-0.88565 0.7554-1.8142 0.7554-1.2888 0-3.5444-0.4883-8.3053-1.5833h-1.8e-4c-16.098-3.7726-21.562-4.3603-42.256-4.3604h-9.1e-4c-25.808 0.08375-40.827 2.4308-59.617 9.3934h-2.8e-4c-2.8847 1.0489-4.8004 1.5757-6.0314 1.5757-1.3845 0-1.8804-0.64866-1.8804-2.3186 0-2.172-0.33112-2.1151 12.534-6.5165h-1.3e-4c9.022-3.0072 21.812-5.8496 32.006-7.0196h2e-4c2.7116-0.30799 9.8494-0.48085 17.667-0.48085zm-21.162-170.74c-16.98 0-34.686 2.2474-52.943 6.6716h-2.5e-4c-10.726 2.5978-26.981 7.792-33.947 10.73h-9e-5c-3.7701 1.5918-4.2282 2.0127-3.7648 4.3301h-3e-5c0.25488 1.367 3.6833 24.362 7.6157 51.303 3.9325 26.942 10.55 71.926 14.734 100.04l0.00159 0.0106 3e-5 3.7e-4c3.1312 20.979 6.0664 40.869 7.5998 51.26 0.51819 3.5113 0.87201 5.9091 1.0212 6.9104h-3e-5c0.69012 4.9835 1.1709 7.1974 2.3322 7.1974 0.05282 0 0.10482-0.0047 0.15664-0.0134h-0.00177c0.72385-0.0904 5.5487-2.0438 10.544-4.2919h2.8e-4c21.481-9.6958 45.307-15.466 73.159-17.808h-3.8e-4c4.467-0.36986 8.9934-0.55064 13.533-0.55064 22.134 0 44.469 4.3048 60.748 11.994l0.00227 0.0011c4.1097 1.8967 7.621 3.4563 8.0665 3.5376h-1e-4c0.01794 0.0033 0.04333 0.0072 0.0741 0.0072 4.2e-4 0 0.00256 1e-4 0.00613 1e-4 0.02563 0 0.12524-5e-3 0.2055-0.0864l0.05084-0.0711c0.03183-0.0637 0.03299-0.1297 0.03333-0.1357 0.02978-0.5401-0.96466-7.4802-2.1834-15.768l-4e-4 -0.00267c-1.3396-8.5395-5.4409-35.658-9.1247-60.273l-1.3e-4 -9.5e-4 -0.00137-0.00891c-2.2689-15.16-4.7029-31.264-6.5757-43.654-1.1593-7.6706-2.0569-13.608-2.5947-17.202l-0.03685-0.24636c-0.4273-2.8574-1.0409-6.9229-1.7465-11.598-0.97989-6.492-2.1438-14.202-3.2795-21.798-0.59933-4.0079-1.2064-8.0889-1.7548-11.81-2.3109-15.681-4.3018-28.636-4.4391-29.151v1e-4c-7.2e-4 -0.00267-0.00822-0.0339-0.0243-0.06614-0.02697-0.05396-0.07072-0.09766-0.11402-0.11902-0.00295-0.00171-0.00728-0.00391-0.0105-0.00564h-2e-5c-0.0411-0.02085-0.27734-0.1594-0.69485-0.4044-1.1138-0.65356-3.3602-1.972-5.9895-3.4396h4e-5c-12.267-6.9738-33.823-12.925-53.354-14.686h-6e-5c-5.6751-0.5374-11.448-0.8047-17.302-0.8047z"/> <path d="m466.74 813.24c10.838 0 21.459 0.87155 28.968 2.5224h-1.2e-4c4.0799 0.89907 5.5895 2.2327 5.2718 3.6741-0.07806 0.3545-0.26537 0.74146-0.57946 1.1603-0.54284 0.72374-0.9082 1.0171-1.9227 1.0171-0.79125 0-1.949-0.18313-3.8283-0.5376h-1.8e-4c-7.6714-1.489-16.723-2.2156-26.241-2.2156-15.167 0-31.545 1.8447-45.457 5.4003h1.2e-4c-10.227 2.5986-23.31 7.3773-29.951 10.992h-2e-5c-4.1697 2.1864-6.1896 3.1184-7.2828 3.1184-0.61038 0-0.91531-0.297-1.196-1.0451h-3e-5c-0.98607-2.6548 0.28205-4.2174 7.9801-7.9395h7e-5c15.037-7.2679 37.691-13.455 56.163-15.294h1.2e-4c5.7395-0.57397 11.942-0.85324 18.076-0.85324zm-0.8204 33.643c11.951 0 26.308 0.67016 32.477 1.7818l0.00147 2e-4c8.0983 1.4152 9.9089 2.4337 9.5654 4.3996-0.03241 0.18544-0.08416 0.38294-0.15484 0.59494l-0.00195 0.00625c-0.31087 1.0102-0.68299 1.48-2.3482 1.48-1.6062 0-4.3093-0.45263-9.054-1.3371-5.068-0.9502-15.232-1.4351-25.356-1.4351-8.7163 0-17.429 0.3594-22.869 1.0979h-7e-5c-19.107 2.5979-36.131 7.292-49.225 13.671l-3.1e-4 1.4e-4c-4.009 1.959-6.4677 2.8667-7.9255 2.8667-1.1225 0-1.627-0.53383-1.8044-1.7277h-1.4e-4c-0.14518-1.2346 0.44905-2.1539 3.2162-3.8308l0.00518-0.0033c10.997-6.9984 37.15-14.526 58.731-17.036h2.6e-4c3.4161-0.36096 8.7714-0.52856 14.743-0.52856zm7.2627 34.226c9.9197 0 19.805 0.91135 30.406 2.8 7.0068 1.3004 8.7474 2.1952 8.4497 3.8-0.0614 0.33095-0.20959 0.7113-0.44323 1.1526l-2.5e-4 6e-4c-0.55591 1.0562-0.93908 1.3864-2.0882 1.3864-0.51203 0-1.1722-0.0696-2.0557-0.19217h-9.1e-4c-15.248-2.5135-21.124-3.0176-33.448-3.0176-26.572 0-50.64 4.9455-71.193 14.593l-0.00102 5e-4c-3.1377 1.4885-5.3148 2.1953-6.7144 2.1953-1.4024 0-2.0121-0.6993-2.0121-2.2779 0-1.672 8.4619-6.3843 19.068-10.118l0.00284-9.5e-4c12.614-4.5946 34.102-8.943 48.897-9.946h-3e-4c3.7421-0.2495 7.4396-0.37585 11.133-0.37585zm-4.9608 34.454c2.4762 0 2.9539 0.432 3.5338 1.3688h-4e-5c0.86332 1.4094 0.5976 2.4928-0.587 3.2187-0.88067 0.53966-2.292 0.89146-4.2087 0.95996l-0.0045 2.4e-4c-21.042 1.0897-43.68 6.2866-59.958 13.755l-0.00103 4.9e-4c-2.9881 1.3858-4.9344 2.048-6.2397 2.048-1.1539 0-1.804-0.5167-2.2556-1.642h-6e-5c-0.63534-1.694 0.84596-3.0032 9.6431-6.7612l9.6e-4 -3.4e-4c14.702-6.3489 33.592-10.863 51.649-12.368l0.00189-1e-4c4.128-0.3723 6.7267-0.579 8.4264-0.579zm1.7579 34.234 6.8408 0.16114v4.4902l-9.2841 0.6516h3e-5c-17.278 1.0906-40.165 6.7913-55.264 13.67l-4.4e-4 2.4e-4c-3.4261 1.5678-5.1769 2.2153-6.2016 2.2153-0.43503 0-0.71689-0.11863-0.9454-0.32643l-0.01096-0.0094c-1.1582-0.94774-1.1244-2.4436 0.03305-3.8583 0.45462-0.55554 1.077-1.0866 1.856-1.5449h-6e-5c8.1611-4.7467 32.734-12.19 47.701-14.364l7.7e-4 -1.2e-4c4.5019-0.66699 11.346-1.0846 15.27-1.0852zm-4.7178-172.39c-25.394 0-52.382 5.185-74.499 14.635h-1.3e-4c-12.986 5.5298-26.256 13.668-31.236 18.986l-0.0063 0.00707-1.7581 2.0091c-0.05398 0.0617-0.0781 0.14395-0.06594 0.225l5.7765 38.509v-1e-4c3.8428 25.702 10.587 70.599 16.02 106.76v-1e-4l8.0898 53.887 7e-5 5e-4 2.2603 14.901c0.01651 0.1089 0.09552 0.1978 0.20169 0.2271 0.02454 0.0068 0.04944 0.01 0.0741 0.01 0.08216 0 0.16166-0.0364 0.21546-0.1018l3.0975-3.7669 8e-4 -9.7e-4c3.6456-4.4744 14.401-11.902 22.417-15.493l4e-4 -2.5e-4c17.454-7.8501 41.776-12.785 69.046-13.956h9.2e-4l12.725-0.58618c0.14885-0.00684 0.26604-0.12952 0.26604-0.27857v-25.7c0-30.019 0.43738-32.464 6.1088-37.889l7.4e-4 -7.6e-4c4.6021-4.4378 8.1021-5.3624 20.799-5.3624h0.02025l10.632-9.7e-4c0.08596 0 0.167-0.03967 0.2199-0.1073 0.0528-0.06773 0.0716-0.15603 0.05075-0.23923l-0.58595-2.344-5e-4 -0.00185c-3.0073-11.695-3.9264-19.291-4.3446-34.428h1.4e-4c-0.33459-13.302-0.16684-18.139 1.0844-25.897h-1e-4l0.0011-0.0062c0.8363-5.27 1.5099-10.982 1.5099-12.599 0-1.6198-2.0153-16.05-4.5241-32.022l-1e-4 -5e-4 -4.6043-28.965c-0.01614-0.10135-0.08654-0.1856-0.18334-0.2195l-5.0228-1.7581h1.4e-4c-8.1444-2.8547-21.895-5.7883-33.125-7.2129l-0.0011-1.4e-4c-6.6738-0.82054-13.606-1.2206-20.662-1.2206z"/> </g> <g fill="#f5b53c"> <path d="m307.98 1017.3c-2.9826 0-5.4819 0.0663-7.1025 0.2152h-2.4e-4c-28.05 2.6796-53.676 9.3789-75.031 19.596h1e-4c-9.4613 4.4377-10.48 5.1974-13.254 9.3154l-4.6e-4 8e-4c-1.5227 2.3239-2.7629 4.3753-2.7772 4.6196v1e-4c-6.2e-4 0.0109-0.00171 0.0436 0.0235 0.0685 0.0148 0.0146 0.03234 0.0208 0.04321 0.0237h-3e-5c0.01925 0.0054 0.04138 0.0066 0.06311 0.0066 0.70697 0 7.1032-1.7102 14.776-3.9483h3e-5c26.115-7.4497 57.67-12.89 79.932-13.81h4e-5c6.0277-0.2514 12.556-0.5859 14.652-0.7537h5e-4c1.1562-0.0881 2.4764-0.1302 3.9394-0.1302 11.022 0 29.906 2.4027 44.093 5.654h-1.4e-4c3.6908 0.8551 5.6242 1.2528 7.0924 1.2528 1.2651 0 2.1852-0.2953 3.5786-0.8371l0.0011-5e-4c1.8404-0.7527 4.0072-1.3344 4.914-1.3344 1.0264 0 1.6402-0.2066 1.6402-0.7132 0-0.7859-1.5997-2.1834-4.7017-4.1812h-5e-5c-9.1351-5.8666-23.293-10.641-39.204-13.321h-7.3e-4c-5.7996-0.91237-22.236-1.7228-32.679-1.7228z"/> <path d="m497.61 1000.3-9.3761 0.16775h2.4e-4c-11.64 0.16745-13.233 0.25145-28.054 2.3445h-1.7e-4c-19.26 2.7633-36.431 7.9556-48.663 14.742l-6.1e-4 2.6e-4c-8.1033 4.5972-19.284 15.849-18.039 18.044 0.09472 0.1669 0.25504 0.28 0.47586 0.3381l0.00815 0.0017c0.57745 0.0826 2.3264 0.6651 3.8383 1.169l0.00145 5e-4c0.7307 0.2268 1.3473 0.3647 2.023 0.3647 1.5732 0 3.4586-0.7475 7.9069-2.7961h2.1e-4c21.253-9.8732 43.847-14.979 76.741-17.574h5.6e-4l13.143-1.0045 0.06665-0.0719v-15.655l-0.07335-0.07217z"/> </g> <g fill="#5285a6"> <path d="m158.42 833.88c-3.6616 0-4.9584 0.66419-4.9584 2.622 0 2.0186 31.479 222.11 32.316 226.13l0.50229 2.4275 0.08695 0.0667 8.5389-0.5021h-3.4e-4c4.6107-0.2517 13.562-1.0883 19.761-1.7584h4.6e-4c18.399-2.091 48.404-5.3598 86.644-9.2926h1.8e-4c50.923-5.3512 65.893-7.0266 66.435-7.5568l0.00452-0.0047 6.4e-4 -8e-4h1.8e-4c0.27198-0.2743 0.32801-0.5639 0.03812-0.8537-0.60013-0.5999-2.7625-1.2478-7.3654-2.2968h7e-5c-11.728-2.7645-25.548-4.1041-40.956-4.1041h-2.1e-4c-31.236 0.0836-61.129 4.8569-100.65 16.328h7e-5c-13.238 3.8305-18.653 5.2679-21.107 5.2679-1.1785 0-1.6485-0.3315-1.9863-0.8758h-2.8e-4c-0.37182-0.8045-7.8008-51.635-16.565-113.15l-15.99-112.18-0.07864-0.0719-3.2649-0.16747h-0.00135c-0.50485-0.01783-0.97238-0.02698-1.407-0.02698z"/> <path d="m496.7 1022.2c-0.03662 0-0.07172 0.0042-0.10913 0.0125h-0.00147c-0.59204 0.08335-2.9263 0.2502-5.2621 0.4171h-1.9e-4c-31.649 2.0095-53.924 6.4468-73.774 14.571l-5.2e-4 1e-4 -0.00568 0.0024h9e-5c-8.9584 3.6889-11.588 5.032-11.134 6.1361 0.04797 0.1165 0.12887 0.2263 0.23489 0.3324 0.0112 0.0113 0.02313 0.0171 0.03198 0.0208h-1.3e-4c0.05107 0.0215 0.17338 0.0278 0.33772 0.0278 3.9724 0 43.446-3.9841 77.205-7.8147l1.3e-4 -1e-4c5.7787-0.67 11.131-1.1715 11.88-1.1715 1.4234 0 1.5735-0.9522 1.5735-6.3454 0-4.2622-0.20953-6.1887-0.97656-6.1887z"/> <path d="m391.43 1042.3c-8.0814 0-18.596 3.8945-18.596 7.9907 0 1.9715 5.5001 3.6378 11.591 3.6378 6.6174 0 13.157-1.6747 16.432-4.2781l2.3e-4 -1e-4c1.8535-1.4971 2.2242-1.803 1.3125-2.9319-0.15003-0.1858-0.33713-0.3976-0.55466-0.6392h-1.5e-4c-0.84149-0.9256-2.6871-2.1839-4.1988-2.7718h5e-5c-1.621-0.6999-3.7117-1.0074-5.986-1.0074z"/> </g> <g fill="#67b4c3"> <path d="m699.22 951.94 2.2969 1.969 2.286 1.9594 0.25046 25.54 0.25034 25.546-2.0428 2.043-2.0437 2.0437-86.994-1.3e-4 -87.002 2.3e-4 -2.2967-1.9689-2.2854-1.9587 1.3e-4 -25.623v-25.623l2.2853-1.9586 2.2969-1.969 86.499-1.5e-4zm-59.433 74.582c14.657 0 16.668 0.867 16.668 14.271 0 2.1561-0.05434 4.6471-0.1199 7.4986v6e-4l-0.2496 13.235-2.2868 1.96c-2.2002 1.8742-2.6217 1.9686-16.885 1.9686l-14.664-1e-4 -2.3785-2.3786v1e-4l-2.3786-2.3785v-14.497c0-15.627 0.4425-17.39 4.4132-18.93l0.00879-0.0038c0.8778-0.3989 7.6044-0.7381 14.915-0.7381h7.6e-4c0.99414-0.0042 2.0661-8e-3 2.9557-8e-3zm-101.01 0.1265c1.6316 0 3.4678 0.0166 5.5494 0.049h6.1e-4l14.49 0.1665 1.9596 2.2861h1e-4c1.8746 2.2008 1.9686 2.6211 1.9686 16.885l1.5e-4 14.664-2.3786 2.3785v2e-4l-2.3784 2.3794-15.083-1e-3c-14.766 0-15.103-0.0944-17.303-1.9686l-2.2866-1.9599-0.24986-13.905v-5e-4c-0.33583-15.786 0.2749-18.231 4.2522-20.018h-1.4e-4c1.5155-0.6589 4.6124-0.9558 11.459-0.9558zm51.519-0.2023c13.332 0 13.503 0.0102 15.956 2.1354l0.00207 0.0018 2.5352 2.1264v15.325c0 1.1493 0.00294 2.0911 0.00584 3.1205 0.00246 0.8349 5e-3 1.7484 5e-3 2.4925 1.5e-4 13.16-0.628 13.82-12.937 13.82-0.74356 0-1.5298-0.0027-2.3605-0.0056h-1.4e-4c-1.0021-0.0035-1.8452-0.0065-2.9627-0.0065-14.807 0-18.229-0.6979-19.349-3.5763l-1.2e-4 -3e-4c-0.73547-1.8795-0.8219-29.713-0.17224-31.675h-0.00147c0.39297-0.7862 1.7716-1.9346 3.1787-2.5984h-6.2e-4c1.8038-0.7381 6.6179-1.0757 16.095-1.1596zm90.751 0.1518c1.101 0 2.2683 0.0052 3.5035 0.0157h-0.00144l14.909 0.2497 1.9599 2.2866 0.00876 0.0095h-6e-4c1.8668 2.1926 1.9605 2.6321 1.9605 16.875l1.4e-4 14.664-4.7571 4.7571-15.166 1e-4c-1.1742 0-2.2772 0.0041-3.313 8e-3 -0.9607 0.0036-1.7378 0.0066-2.5959 0.0066-12.496 0-13.192-0.6934-13.192-13.314 0-0.7483 0.00357-1.7942 0.00674-2.6482 0.00426-1.1295 0.00816-2.1167 0.00816-3.3897 0-16.035 0.1875-16.822 3.6788-18.771 0.9043-0.4869 5.2532-0.749 12.991-0.749zm-1.6589 46.094c1.6247 0 3.4945 0.0169 5.5799 0.049h6e-4l14.49 0.1666 1.9596 2.2861 0.00876 0.0095h-4.6e-4c1.867 2.1927 1.9605 2.6326 1.9605 16.373 0 15.125-0.526 17.484-3.8372 19.018l-0.0045 0.0021c-1.1266 0.5634-7.5123 0.9032-16.417 0.9032-13.424 0-14.605-0.1764-16.64-1.7232l-2.111-1.6237 1.4e-4 -15.321c0-8.444 0.25156-15.908 0.4906-16.68h-3.4e-4c0.3086-0.7714 1.6731-1.8349 3.0923-2.5034h-2.6e-4c1.5159-0.6591 4.5586-0.956 11.428-0.956zm-141.34-0.0077c1.7961 0 3.8517 0.0205 6.2747 0.0567h6.4e-4l14.49 0.1667 1.9596 2.2862c1.8751 2.201 1.9688 2.6219 1.9688 16.382-1.5e-4 15.125-0.52585 17.484-3.8372 19.018l-0.00455 0.0021c-1.1258 0.563-7.5966 0.9032-16.584 0.9042l-14.664-1e-3 -4.7571-4.7571v-13.827c0-7.5566 0.3384-14.71 0.8252-15.927l0.0022-0.0058c0.3975-1.1128 2.026-2.5925 3.4282-3.2527h-1.4e-4c1.668-0.7699 4.3662-1.0457 10.898-1.0457zm103.42-0.1285c7.9155 0 9.5228 0.2932 11.511 1.5004h-1e-4c3.2461 2.0295 3.7713 4.5778 3.3515 21.115l-1.3e-4 9e-4 -0.2495 12.398-2.2869 1.9601c-2.2003 1.8742-2.5371 1.9686-17.303 1.9687h-0.00316c-1.103 0-2.1778 0.0036-3.1549 0.0069-0.92983 3e-3 -1.6644 0.0057-2.4999 0.0057-12.696 0-13.357-0.6619-13.357-13.313 0-0.7337 0.0029-1.6577 0.00573-2.4845 0.00342-1.0434 0.00672-1.9653 0.00672-3.1336 0-13.839 0.17639-15.107 1.6384-17.058h-1.5e-4c0.90905-1.157 2.4658-2.291 3.4932-2.449l0.0021-3e-4c0.98535-0.1641 7.6716-0.4162 14.792-0.4999h-7.3e-4c1.5005-0.0109 2.8663-0.0177 4.0552-0.0177zm-56.146 0.1362c1.5675 0 3.3683 0.0169 5.3735 0.049h6.1e-4c13.512 0.1679 13.928 0.2616 15.961 2.1321h-1.5e-4l2.1223 1.9592v15.33c0 1.2782 0.00404 2.2686 0.00818 3.4019 0.0033 0.8635 0.00686 1.8992 0.00686 2.6561 0 12.602-0.6956 13.294-13.133 13.294-0.85449 0-1.6284-3e-3 -2.5852-0.0065-1.0314-4e-3 -2.1299-0.0081-3.2994-0.0081-14.512 0-15.103-0.094-17.218-1.8832l-2.1194-1.875 0.08338-15.16v7e-4c0.08362-8.4541 0.41916-15.848 0.65916-16.602h-1e-4c0.22424-0.5983 1.582-1.661 3.0072-2.3325h-2.5e-4c1.5158-0.6591 4.5049-0.956 11.132-0.956zm49.664 46.076c0.97146 0 2.0084 0.0054 3.0094 0.016h-4.9e-4c1.2084 0.0156 2.2899 0.0247 3.3476 0.0336 0.9341 0.0078 1.7528 0.0146 2.5781 0.0253h-1.3e-4c12.262 0.1579 12.226 0.9351 12.167 15.625-0.00455 1.1208-0.00905 2.21-0.00905 3.4861 0 15.196-0.0128 15.433-1.9623 17.464l-0.00233 0.0023-1.9591 2.1224-15.33 3e-4h-0.0033c-1.0462 0-2.3152 0.0039-3.2316 0.0069-0.9513 0.0031-1.7026 0.0057-2.5568 0.0057-12.862 0-13.56-0.6583-13.56-13.034 0-0.7804 0.0033-1.6745 0.0067-2.5556 0.0039-1.0403 0.00795-2.0827 0.00795-3.2588 0-16.044 0.44215-17.728 4.416-19.35l0.00611-0.0026c0.75866-0.3448 6.3928-0.5868 13.076-0.5868zm-77.006-0.2348 2.378 2.3781v2e-4l2.3784 2.3784v15.166c0 1.2751 0.00454 2.2954 0.0092 3.4219 0.00365 0.9018 0.00755 1.8652 0.00755 2.6584 0 12.326-0.73071 13.021-13.649 13.021-0.8538 0-1.76-0.0033-2.7224-0.0067-1.0432-0.0038-2.294-0.0082-3.4853-0.0082l-15.744 2e-4 -2.1262-2.5352-0.00186-0.0021c-2.1255-2.4525-2.1355-2.6229-2.1355-16.214 0-14.956 0.77725-17.979 4.3326-19.434l9.5e-4 -5e-4c0.96474-0.402 8.2808-0.7405 16.26-0.7405h9.7e-4l14.496-0.0833zm37.646 0.0579c8.1665 0 8.5689 0.3022 10.617 2.0771l0.00207 0.0018 2.5352 2.1262v15.492c0 1.3752 0.00574 2.5794 0.01134 3.7743v2e-4c0.0048 0.9963 0.0093 1.9913 0.0093 2.8593 0 11.867-0.7368 12.644-12.358 12.644-0.8844 0-1.9039-0.0053-2.9245-0.0107-1.1834-0.0063-2.5292-0.0133-3.9079-0.0133-15.197 0-15.764-0.0986-17.372-1.7872-0.9003-0.9821-1.6215-2.3543-1.7123-2.9838h-0.0016c0-0.182-0.00475-0.7071-0.0121-1.5063-0.0229-2.5233-0.0715-7.869-0.0715-13.646v-1e-3c-0.0841-14.714 0.44507-16.974 3.6615-18.26l0.0022-1e-3c0.9647-0.402 8.0303-0.7405 15.757-0.7405h7.6e-4l0.08383-4e-4 0.08327-3e-4h2e-4c2.2049-0.0136 4.0221-0.0246 5.5968-0.0246zm83.753 0.1438c1.6246 0 3.4946 0.0169 5.5801 0.049h6e-4l14.49 0.1665 3.9284 4.583v75.296l-2.3786 2.3785-2.3786 2.3784-14.999 2e-4c-13.927 0-15.108-0.1768-17.143-1.7232l-2.111-1.6239-1.4e-4 -38.342c0-21.043 0.2521-38.852 0.49086-39.702h-6.1e-4c0.30845-0.7712 1.6734-1.8348 3.0923-2.5035h-1.4e-4c1.5156-0.6588 4.5584-0.9558 11.428-0.9558zm-136.98 46.678c8.4785 0 15.97 0.2538 16.69 0.4936h-6.1e-4c2.8737 1.1228 3.6527 4.556 3.6527 18.593 0 13.599-0.43395 15.918-3.1988 18.033l-0.0044 0.0034c-0.86084 0.7044-5.7824 0.9662-16.47 1.0504h-0.00307c-14.923 0-15.184-0.0938-17.466-1.9686h-1e-4l-2.2866-1.96-0.2499-14.575-0.2501-14.504 2.1363-2.547-3.4e-4 3e-4 2.2099-2.6192zm53.086-0.015c12.62 0 13.314 0.6956 13.314 13.193 0 0.7926-0.0033 1.7005-0.0066 2.5956-4e-3 1.0571-0.00804 2.1167-0.00804 3.3125 0 1.1582 0.00344 2.1399 0.00684 3.1711 0.0027 0.7869 0.00574 1.8197 0.00574 2.5123 1.2e-4 12.754-0.66324 13.415-13.332 13.415-0.8283 0-1.5564-0.0027-2.4777-0.0057-0.95434-0.0031-2.0441-0.0067-3.1221-0.0067-13.927 0-15.108-0.1768-17.143-1.7232l-2.1109-1.6239v-15.572c0-14.863 0.0968-15.601 1.7953-17.38 1.6942-1.775 2.0071-1.8735 17.04-1.8735 1.2024 0 2.3305-0.0042 3.3894-0.0081 0.94704-0.0035 1.8075-0.0068 2.6489-0.0068zm56.674 0.0149 1.9592 2.1225 0.00219 0.0023c1.9497 2.0309 1.9624 2.2692 1.9624 16.962 0 14.692-0.0127 14.93-1.9624 16.961l-0.00219 0.0023-1.9592 2.1224-15.33 3e-4h-0.00305c-1.2896 0-2.2404 0.0038-3.3866 8e-3 -0.8605 0.0033-1.8924 0.0069-2.6472 0.0069-12.622 0-13.315-0.6952-13.315-13.193 0-0.7492 0.00344-1.7444 0.0066-2.5959 0.00404-1.0572 0.0081-2.1168 0.0081-3.3128 0-15.03 0.014-15.094 2.0411-17.04l0.0049-0.0049c1.9309-2.0114 2.0084-2.041 16.947-2.041h0.34385l15.33-1e-4zm59.511-234.74-98.867 1e-4c-92.456 1.3e-4 -99.065 0.07765-101.79 1.5268h-4.8e-4c-1.6149 0.76735-3.7246 2.5398-4.6606 3.8162l-1.757 2.3426-0.03364 0.10071-0.25104 134.11v1e-4c-0.1673 93.562-0.00244 135.05 0.67718 137.26h-5e-5c1.1872 4.2349 4.7391 8.2059 8.882 10.066 3.2246 1.526 8.0868 1.6054 98.238 1.6054h0.1962c90.517 0 95.208-0.0783 98.435-1.606h1.2e-4c4.0571-1.8594 6.6819-4.5692 8.4562-8.7092l0.00186-0.0047c1.1041-2.8023 1.2676-18.182 1.2674-136.94 0-125.53-0.07727-133.96-1.5229-136.78h-1.4e-4c-0.76696-1.6192-2.7105-3.8163-4.327-4.839h-2.3e-4l-2.8463-1.9257-0.09426-0.0289z"/> </g> <g fill="#b5e3dc"> <path d="m527.75 958.29c-0.04836 0-0.09446 0.0193-0.12856 0.05346-0.03404 0.0343-0.0531 0.08069-0.0527 0.12914l0.1672 23.189 1.5e-4 6.1e-4 0.2511 23.273c0.00109 0.09923 0.08155 0.17908 0.18078 0.17933l84.72 0.2512h1.2e-4l84.803 0.1675h4e-4c0.0847 0 0.1581-0.0586 0.1769-0.1411l0.4183-1.8412c0.25745-1.1156 0.3395-11.615 0.25586-23.315l-1.2e-4 -8.6e-4 -0.2511-21.347c-0.00124-0.0991-0.08164-0.1789-0.18078-0.1792l-85.222-0.2512h-2.3e-4l-85.138-0.1671z"/> </g> <g fill="#fdc122"> <path d="m678.14 1125c-5.4244 0-7.5522 0.2186-7.7823 0.9857h-5e-4c-0.25965 0.753-0.33924 17.062-0.256 36.285v3e-4l0.2512 35.16c5e-4 0.0685 0.05545 0.1243 0.1239 0.1257l12.474 0.2511h9.8e-4c1.138 0.0138 2.2717 0.0211 3.3373 0.0211 5.3004 0 9.5777-0.1623 9.9801-0.5596 0.0188-0.0185 0.02944-0.038 0.0359-0.0513l2.5e-4 -5e-4c0.34805-0.715 0.67125-16.947 0.67125-36.203l0.08364-35.579c1.2e-4 -0.069-0.05504-0.1253-0.12414-0.1267l-13.059-0.2511h-2.4e-4c-2.2197-0.0372-4.1565-0.0584-5.7355-0.0584z"/> <path d="m631.15 1171.1c-5.4509 0-7.4469 0.2353-7.7473 1.0615l-0.0028 0.0084c-0.17395 0.609-0.25574 6.4153-0.17236 12.761v9e-4l0.25122 11.72c0.00144 0.0679 0.05627 0.1225 0.12414 0.1238l26.454 0.5023h0.0022c0.03369 0 0.06594-0.0132 0.0896-0.037 0.02429-0.0243 0.03774-0.0575 0.03711-0.0919l-0.2511-12.808-0.25122-12.808c-0.00135-0.068-0.05605-0.1227-0.12405-0.124l-12.808-0.251h-4e-4c-2.1856-0.0368-4.0471-0.0576-5.6007-0.0576z"/> <path d="m586.5 1171.1c-5.1722 0-9.2753 0.1417-9.6613 0.3679l-8.4e-4 5e-4c-0.00843 5e-3 -0.01344 0.0083-0.0209 0.0139l-0.01207 0.0105c-0.00928 9e-3 -0.01133 0.0115-0.01843 0.0204l-1e-3 0.0011c-0.3662 0.4665-0.6047 6.3639-0.6047 13.128v12.391c0 0.0336 0.0133 0.0658 0.037 0.0895 0.0238 0.0237 0.0559 0.0371 0.08945 0.0371l26.873-1e-3c0.03407 0 0.06654-0.0137 0.09034-0.038s0.03686-0.0571 0.03626-0.091l-0.2512-12.808-0.2511-12.725c-0.00137-0.0679-0.05605-0.1227-0.12405-0.124l-12.641-0.2511h-9.6e-4c-1.2232-0.015-2.3989-0.022-3.5381-0.022z"/> <path d="m539.62 1171.1c-5.1722 0-9.2754 0.1417-9.6614 0.3679l-8.5e-4 5e-4c-0.00415 0.0025-0.0149 0.0095-0.02076 0.0139l-0.0122 0.0105c-0.00611 6e-3 -0.01294 0.0137-0.01844 0.0204l-8.5e-4 0.0011c-0.36621 0.4667-0.60475 6.3638-0.60475 13.129v12.391c0 0.0336 0.0133 0.0658 0.037 0.0895 0.0238 0.0237 0.0559 0.0371 0.0895 0.0371l26.873-1e-3c0.03396 0 0.06653-0.0136 0.09033-0.0379 0.02383-0.0243 0.03686-0.0572 0.03613-0.0911l-0.2511-12.808-0.2511-12.725c-0.00134-0.0679-0.05615-0.1227-0.124-0.124l-12.641-0.2511h-1e-3c-1.1965-0.0147-2.4254-0.022-3.5381-0.022z"/> <path d="m556.3 1124.9-13.311 2e-4c-7.1135 0-13.249 0.1577-13.677 0.3346h1e-4c-0.0112 0.0046-0.0361 0.0156-0.0575 0.0364l-1e-4 2e-4c-0.02296 0.0226-0.03455 0.0495-0.0393 0.0619-0.1698 0.4328-0.1597 6.3197 0.0853 13.26v-3e-4l0.4186 12.809c0.0022 0.0682 0.0581 0.1224 0.12646 0.1224l25.952-9e-4c0.069 0 0.12526-0.0552 0.1265-0.1242l0.2511-13.227 0.2512-13.143c6e-4 -0.034-0.01245-0.0668-0.03625-0.0911-0.02381-0.0243-0.05625-0.038-0.09035-0.038z"/> <path d="m584.27 1125c-5.452 0-7.448 0.2352-7.7486 1.0618l-0.0028 0.0084c-0.1741 0.6095-0.25575 6.5825-0.17226 13.18v1e-3l0.25122 12.14c0.00134 0.0688 0.05764 0.124 0.12644 0.124l25.952-1e-3c0.06994 0 0.1266-0.0567 0.1266-0.1266v-25.952c0-0.069-0.0552-0.1251-0.12405-0.1265l-12.808-0.2511h-4e-4c-2.1656-0.0365-4.0657-0.0576-5.5994-0.0576z"/> <path d="m631.15 1125c-5.4514 0-7.4469 0.235-7.7475 1.0617l-0.0027 0.0084c-0.1743 0.61-0.25586 6.5822-0.17236 13.18v1e-3l0.2511 12.139c0.00146 0.0689 0.05776 0.124 0.12656 0.124l12.976 2e-4 12.976-2e-4c0.06994 0 0.12659-0.0567 0.12659-0.1266v-25.952c0-0.069-0.05515-0.1251-0.12405-0.1265l-12.808-0.2509h-4e-4c-2.1854-0.0368-4.0471-0.0577-5.6005-0.0577z"/> <path d="m696.94 1078.9-13.06 2e-4c-9.7908 0-13.219 0.2257-13.596 1.1678l-0.00414 0.0122c-0.1742 0.6089-0.25587 6.5835-0.1725 13.18v1e-3l0.2511 12.138c0.0015 0.0689 0.05775 0.124 0.1266 0.124l12.976-1e-4 12.976 1e-4c0.06895 0 0.12525-0.0551 0.12645-0.1241l0.25136-13.227 0.25098-13.144c7.6e-4 -0.0339-0.01234-0.0667-0.03614-0.091s-0.0564-0.038-0.0903-0.038z"/> <path d="m631.15 1079c-5.451 0-7.4467 0.2348-7.7473 1.0614l-0.0027 0.0085c-0.1743 0.6098-0.25586 6.5821-0.17236 13.18v9e-4l0.2511 12.14c0.00146 0.0688 0.05776 0.124 0.12656 0.124l25.952-1e-3c0.06994 0 0.12659-0.0567 0.12659-0.1266v-25.952c0-0.069-0.05505-0.1251-0.12405-0.1265l-12.808-0.251h-4e-4c-2.1857-0.0367-4.0475-0.0576-5.6007-0.0576z"/> <path d="m576.22 1078.8c-0.03357 0-0.06579 0.0132-0.0896 0.037-0.02429 0.0243-0.03773 0.0575-0.03699 0.0919l0.2511 13.227 0.25122 13.227c0.00124 0.069 0.0575 0.1241 0.12644 0.1241l12.976-1e-4 12.976 1e-4c0.03356 0 0.0658-0.0134 0.08947-0.0371 0.02383-0.0237 0.03713-0.0559 0.03713-0.0895v-25.952c0-0.069-0.0552-0.1251-0.12417-0.1265l-13.227-0.251-13.227-0.2513z"/> <path d="m542.82 1078.9-13.478 2e-4c-0.03404 0-0.06654 0.0137-0.09034 0.038s-0.03686 0.0571-0.03625 0.0911l0.25125 13.143 0.2511 13.227c0.0013 0.069 0.0576 0.1242 0.12656 0.1242l12.976-2e-4 12.976 2e-4c0.069 0 0.12526-0.0552 0.1265-0.1242l0.2511-13.227 0.2512-13.143c6e-4 -0.034-0.01245-0.0668-0.03625-0.0911-0.02381-0.0243-0.05625-0.038-0.09035-0.038l-13.478-2e-4z"/> <path d="m576.22 1032.8c-0.0336 0-0.0657 0.0133-0.08937 0.0371-0.02429 0.0243-0.03773 0.0574-0.03713 0.0918l0.25124 12.808 0.25122 12.808c0.00134 0.0689 0.05764 0.1242 0.12659 0.1242l12.976-1e-4 12.976 1e-3c0.0336 0 0.0657-0.0134 0.0895-0.0371 0.0237-0.0237 0.037-0.0559 0.037-0.0894v-25.115c0-0.069-0.0553-0.1253-0.12417-0.1266l-26.454-0.502z"/> <path d="m649.97 1032.9h-12.976c-9.7908 0-13.219 0.2256-13.596 1.1679l-0.0041 0.0122c-0.1742 0.6093-0.2559 6.4146-0.1724 12.761v1e-3l0.25124 11.72c0.00146 0.0679 0.05626 0.1225 0.12416 0.1238l13.227 0.2514 13.143 0.2509h0.00234c0.03306 0 0.06506-0.0128 0.08876-0.0361 0.02415-0.0238 0.0378-0.0564 0.0378-0.0903v-26.036c0-0.0336-0.0133-0.0657-0.0371-0.0895-0.02366-0.0238-0.0559-0.037-0.08946-0.037z"/> <path d="m683.46 1032.9h-13.394c-0.06993 0-0.1266 0.0566-0.1266 0.1266v12.976l1.5e-4 12.977c0 0.0336 0.0133 0.0658 0.03699 0.0895 0.0238 0.0237 0.0559 0.0371 0.08946 0.0371l26.789-1e-3c0.06985 0 0.12645-0.0567 0.12645-0.1266v-25.952c0-0.07-0.0566-0.1266-0.12657-0.1266h-13.394z"/> <path d="m542.82 1032.9h-13.394c-0.06983 0-0.12646 0.0566-0.12646 0.1266v25.953c0 0.0336 0.0133 0.0658 0.0371 0.0895 0.0237 0.0237 0.0559 0.0371 0.0895 0.0371l26.789-1e-3c0.0698 0 0.12646-0.0567 0.12646-0.1266v-25.952c0-0.07-0.05666-0.1266-0.12656-0.1266h-13.394z"/> </g> <g fill="#fde8a5"> <path d="m686.81 762.75c2.35 0 3.0725 1.1336 3.0724 9.6026 0 1.5133-0.02284 3.2826-0.06128 5.2927v-6.1e-4c-0.2528 11.21-0.43906 12.819-1.5986 13.592h-1.3e-4c-0.52575 0.32276-0.9752 0.47376-1.402 0.47376-0.42737 0-0.85533-0.151-1.3393-0.47376l-0.0042-0.0027c-1.238-0.77366-1.4253-2.3767-1.6782-13.589-0.1686-8.7623 0.09864-13.092 0.7106-13.78l0.0089-0.01099c0.4673-0.62326 1.503-1.104 2.2919-1.104zm-60.826 15.156c1.7812 0 4.1862 2.8224 9.3662 10.718l7.4e-4 0.0011c3.8511 5.7768 6.8862 10.797 6.9198 11.293h-1e-4c-0.00186 1.3783-2.2194 3.0836-3.7252 3.0836-0.2395 0-0.44995-0.0446-0.62355-0.13503h-3.5e-4c-1.552-0.89847-14.565-20.69-14.565-22.205 0-0.4412 0.47096-1.4052 0.95486-1.8889 0.5731-0.573 1.1034-0.8671 1.673-0.8671zm121.85-0.08764c1.6752 0 3.2624 1.525 3.2624 3.0111 0 1.2628-12.006 20.39-13.75 21.801-0.36745 0.2937-0.80116 0.4259-1.2543 0.4259-1.4634 0-3.0731-1.3764-3.0731-3.0565 0-0.93935 3.0477-6.3191 6.7527-12.045 4.3147-6.5144 7.2607-10.137 8.0624-10.137zm-165.34 44.369c0.46143 0.04543 5.81 2.6737 11.893 5.9236 9.4482 5.1459 11.044 6.2598 11.044 7.803 0 1.0264-0.71985 2.2248-1.5856 2.6971h-1e-4c-0.2654 0.14017-0.55505 0.22037-0.9299 0.22037-1.5186 0-4.3297-1.2996-11.885-5.2444l-0.00293-0.0016c-9.3643-4.9775-11.208-6.2596-11.208-7.7173 0-0.97533 0.4098-2.1813 0.9547-2.7262l4e-4 -3.5e-4c0.57225-0.57215 1.2788-0.94995 1.7137-0.95425zm209.56 1.5e-4c1.2403 0.02441 3.4095 2.2664 3.4095 3.6806 0 1.2053-3.0903 3.321-14.644 9.4774h-1e-4c-5.2488 2.8032-7.3502 3.7923-8.5528 3.7923-0.46815 0-0.79675-0.15256-1.1396-0.42666l-0.0017-0.00144c-0.7048-0.54822-1.2739-1.8339-1.2739-2.8795 0-1.3776 1.8507-2.7418 10.628-7.6371h1.4e-4c5.8458-3.2569 10.964-5.8942 11.566-6.0056zm-218.97 58.718c1.2855 0 2.7466 0.01674 4.3849 0.04944h-8e-4c10.035 0.25305 11.646 0.4385 12.42 1.5989h-1e-4c0.6345 1.0334 0.6295 1.7973 1e-4 2.7413l-0.00267 0.00416c-0.77429 1.2389-2.2975 1.4253-12.334 1.6782h6e-4c-1.7099 0.03636-3.2036 0.05687-4.5266 0.05687-7.8857 0-9.1128-0.74937-9.1128-2.9845 0-0.70767 0.48354-1.8362 0.95473-2.3074 0.54187-0.542 2.8833-0.83704 8.2163-0.83704zm219.81 0.11094c1.1426 0 2.3563 7e-3 3.5784 0.02224l0.0444 6.1e-4h-1e-4l0.0442 4.9e-4h-2.6e-4c12.012 0.16821 11.909 0.21252 12.135 1.944l4.6e-4 0.0037c0.34764 2.2848 0.00647 3.298-3.1522 3.7785-2.0046 0.30493-5.1059 0.3789-9.823 0.3789-7.844 0-11.749-0.34997-12.353-0.95471-1.1474-1.1473-1.1819-3.7969-0.28555-4.6935 0.09325-0.09325 0.19519-0.16565 0.30469-0.21555h-0.00208c0.37549-0.125 4.3718-0.2647 9.5091-0.2647zm-106.09-72.224c2.9573 0 3.1784 0.8274 3.1786 29.214v27.291c0 0.06396 0.03575 0.12243 0.09275 0.1515l4.2696 2.1767 0.00232 0.0011 4.2694 2.0927c0.02366 0.0117 0.0493 0.0173 0.0748 0.0173 0.03834 0 0.0764-0.0129 0.1073-0.03806l13.562-11.05c0.00417-0.00342 0.00795-0.00645 0.01125-0.00915h1.5e-4s0.0095-0.0078 0.03964-0.03235c43.665-35.467 55.921-45.215 56.891-45.466 0.05407-0.0127 0.10863-0.0188 0.1676-0.0188 1.134 0 2.8965 2.322 2.8965 3.8303 0 0.1823-0.02663 0.34304-0.0806 0.4821h-0.0023c-1.0763 1.4968-50.848 42.273-65.241 53.421h-1e-4c-3.8266 2.9116-4.4524 3.6552-3.825 5.6272h-1e-4c0.3269 1.151 0.578 4.5548 0.578 7.6504 0 4.8297-0.3286 5.9649-2.4803 9.0272-3.4876 4.9177-9.0744 7.4505-14.709 7.4505-4.8106 0-9.651-1.847-13.241-5.628-2.9746-3.1399-3.9716-6.0222-3.9716-12.105l-1e-4 -0.0027-0.08376-5.1902c-9.8e-4 -0.0598-0.03334-0.1147-0.08521-0.1446l-18.92-10.883 7e-4 5e-4 -0.0079-0.00466h-1.5e-4c-3.3968-1.9724-6.9696-4.0388-10.031-5.8092-2.5748-1.4892-5.0029-2.8937-6.9682-4.0348-2.785-1.617-4.8188-2.8087-5.5908-3.2912h-1.3e-4c-3.2021-2.0189-4.1101-3.8212-3.1389-5.3616 0.20727-0.32884 0.5044-0.6554 0.89416-0.9757h-1.2e-4c0.32776-0.2622 0.61766-0.42785 1.0853-0.42785 1.9599 0 6.8513 2.8062 27.186 14.674l18.334 10.715c0.0266 0.01563 0.05627 0.02333 0.0858 0.02333 0.03663 0 0.073-0.01186 0.1034-0.0352l2.5111-1.9251h1.3e-4c1.4077-1.0766 3.9854-2.4911 5.6536-3.2425h-2.5e-4l3.0974-1.2556c0.06408-0.026 0.10608-0.08837 0.10608-0.1576v-27.459c0-20.337 0.26745-27.656 0.95485-28.343 0.55564-0.55566 1.5176-0.9547 2.2239-0.9547zm85.04 120.95c1.3816 0 3.8416 1.3285 12.153 6.0262l1e-4 1.2e-4c9.1616 5.1678 11.283 7.1653 10.183 9.1171-0.0931 0.16517-0.2112 0.33377-0.35204 0.50527l-0.00136 0.0017c-0.5525 0.69054-1.1116 1.0564-1.9751 1.0564-1.7257 0-4.6574-1.4439-10.951-5.0324l-2.4e-4 -1.4e-4c-10.528-5.9798-11.885-7.0951-11.885-8.9775 0-0.7697 0.63035-1.8008 1.4128-2.1919l0.01037-0.00575c0.52099-0.30785 0.88693-0.49915 1.4064-0.49915zm-37.037 35.681c1.7341 0 4.0138 2.7468 8.8638 10.305l7e-4 9.6e-4c3.6195 5.5556 6.5021 10.855 6.5021 11.711l1e-4 0.00623c0.06776 1.8264-1.2938 3.2329-2.7999 3.2887h1e-4c-0.0354 0.00134-0.0581 0.0017-0.0934 0.0017-0.24363 0-0.49-0.03506-0.73643-0.10996h-1.2e-4c-1.5046-0.4751-14.364-20.405-14.364-22.274 0-0.613 0.47535-1.5768 0.95485-2.0562l5e-4 -6.2e-4c0.57944-0.57933 1.1097-0.87316 1.6716-0.87316zm-47.354-210.39c-2.8345 0-5.6771 0.23094-10.877 0.6814h-4.9e-4c-17.855 1.5928-38.473 8.0465-54.483 17.015-27.836 15.511-50.214 44.514-59.685 76.951v2.3e-4c-6.372 21.966-6.1199 47.867 0.5023 70.332l7.5e-4 0.0024 1.172 3.7672c0.02196 0.07066 0.08726 0.11902 0.16136 0.11936l74.841 0.4187 26.666 0.1565h-1e-4c51.119 0.31154 51.211 0.5894 54.549 4.4981 0.2409 0.28213 0.49185 0.57617 0.78506 0.89883l0.00208 0.00217c0.15332 0.16273 0.13781 0.14633 0.28759 0.30493 0.09397 0.0995 0.17774 0.1881 0.26832 0.2843 4.753 5.0455 4.7708 5.5636 5.1572 39.649l0.01706 1.5045v2.3e-4l0.41844 33.57c6e-4 0.05446 0.0275 0.10524 0.07204 0.1367 0.02896 0.02054 0.06326 0.03104 0.0979 0.03104 0.01846 0 0.03711-0.00294 0.05506-0.00914l5.8601-2.0092h2.5e-4c20.964-7.2115 43.343-23.977 57.76-43.088v-1.4e-4c27.16-36.046 33.195-83.325 15.928-125.74-11.066-27.247-34.369-52.141-61.528-65.804l-3.4e-4 -2.4e-4c-14.587-7.2936-29.424-11.4-46.522-12.909h-1.3e-4c-5.5981-0.51284-8.548-0.76504-11.505-0.76504z"/> </g> <g fill="#f7673c"> <path d="m686.54 734.33c-21.022 0-34.117 2.356-52.925 9.3308h-1.5e-4c-38.114 14.156-71.033 46.07-86.278 83.933-8.0407 19.767-10.638 33.257-10.722 54.699-0.08376 14.991 0.5865 21.612 3.7699 34.512l1.7578 7.3673 0.0869 0.06861 15.571-9.8e-4c0.02881 0 0.05591-0.01392 0.07275-0.03736 0.0167-0.02355 0.02125-0.0536 0.01185-0.0809l-1.172-3.4324-6.1e-4 -0.0017c-0.66687-1.8339-2.0054-7.3533-2.9261-12.208l-1.3e-4 -3.5e-4c-5.3539-27.607-1.5895-55.967 10.876-82.069 18.573-38.902 50.947-64.501 93.867-74.122v-1e-4c9.8583-2.2153 19.865-3.3126 29.825-3.3126 20.131 0 40.08 4.4812 58.268 13.268h1.4e-4c27.608 13.302 48.522 33.882 62.159 61.072v-1.3e-4c12.047 24.094 16.648 50.782 13.135 76.715v2.7e-4c-2.9282 22.087-9.8719 40.66-22.254 59.316-7.1095 10.622-24.346 27.859-35.052 35.052-9.4552 6.2756-24.181 13.638-31.955 15.978l-6.3e-4 1e-4 -5.6925 1.7581-0.0631 0.0854v14.734c0 0.0277 0.0128 0.0539 0.0348 0.0708 0.01587 0.0122 0.03515 0.0185 0.0547 0.0185 0.00755 0 0.01524-9e-4 0.0227-0.0029l4.7712-1.2554c16.256-4.1899 36.443-15.164 51.771-28.063 48.414-40.708 66.258-101.94 46.908-161.08-16.753-51.18-58.385-88.54-111.32-99.764h-1.5e-4c-8.7138-1.8433-12.739-2.2622-28.145-2.5137h-2.5e-4c-1.5138-0.02134-3.0172-0.0326-4.4518-0.0326z"/> <path d="m687.07 872.7c-1.2705 0-2.5973 0.27024-4.059 0.8142h-2.5e-4c-1.0472 0.3331-1.9992 0.6615-2.6568 0.8883-0.3379 0.11645-0.5896 0.20324-0.73134 0.2484-0.06336 0.02015-0.09666 0.0292-0.10571 0.0305h-0.00135c-0.02807 0.00234-0.0482 0.0176-0.05456 0.02236-0.15554 0.11658-0.97754 1.4389-1.9321 3.0299-2.6139 4.2168-2.0236 9.6987 1.5189 13.241 2.1226 2.1225 4.7636 3.0688 7.3859 3.0688 5.708 0 11.335-4.4863 11.335-11.078 0-2.5448-2.7816-7.0046-5.2282-8.5233-1.8551-1.153-3.5962-1.7419-5.471-1.7419z"/> <path d="m605.57 704.51"/> </g> <path d="m706.23 882.84c0.0048 10.339-8.6546 18.628-19.22 18.633-10.566 0.0049-19.233-8.2761-19.237-18.615-0.00477-10.339 8.6547-18.628 19.22-18.633 10.566-0.00486 19.233 8.2765 19.237 18.615m-3.2554 0.00147c-0.00391-8.4344-7.1042-15.365-15.98-15.361-8.8761 4e-3 -15.97 6.941-15.966 15.376 0.0039 8.4348 7.1044 15.365 15.98 15.361 8.8761-0.00405 15.97-6.941 15.966-15.376z"/> <g fill="#f7673c"> <path d="m605.58 712.07"/> <path d="m653.52 847.21"/> </g> <path d="m653.52 847.21"/> <path d="m653.52 847.21"/> <path d="m653.52 847.21"/> <path d="m699.81 882.84c3e-3 6.8879-5.7659 12.41-12.805 12.413-7.0388 0.0033-12.813-5.5137-12.816-12.402-0.00315-6.8878 5.7659-12.41 12.805-12.413 7.0391-0.0032 12.813 5.5138 12.816 12.401m-2.1688 9.8e-4c-0.00255-5.619-4.7329-10.237-10.646-10.234-5.9133 0.00266-10.64 4.6242-10.637 10.244 0.0026 5.6194 4.7329 10.237 10.646 10.234 5.9133-0.0028 10.64-4.6243 10.637-10.244z"/> <path d="m653.52 847.21"/> <path d="m653.52 847.21"/> <path d="m653.52 847.21"/> <g fill="#fdc122"> <path d="m684.91 674.71c-1.3718 0-2.6317 0.12097-3.6349 0.39013-11.026 2.885-18.589 12.56-18.504 23.44v2e-3c0.08497 6.2877 1.881 10.468 6.3683 15.379l0.00136 0.00145c2.1538 2.3296 3.7424 3.6627 4.8238 3.6627 1.1648 0 1.4639-1.3318 1.4639-2.975 0-6.2612 4.9814-11.465 10.767-11.465 0.08896 0 0.17576 0.00124 0.26526 0.00364h0.0039c5.1458 0.0806 8.8984 3.7619 10.217 10.273l0.0011 0.00515c0.5194 2.375 1.1394 4.5509 1.5936 4.9817 0.05824 0.05529 0.1725 0.14379 0.33217 0.14379 0.08813 0 0.16103-0.03039 0.19519-0.04577 0.48034-0.2168 2.3752-2.0536 4.3215-4.0778l0.0029-0.00305c5.1706-5.5096 6.9634-10.459 6.4545-17.922l-2.6e-4 -0.00205c-0.67907-9.1682-5.5294-15.975-13.847-19.709l-0.00305-0.00136c-2.9416-1.2868-7.3106-2.0815-10.823-2.0815z"/> <path d="m686.56 709.83c-1.3037 0-2.6393 0.62097-3.4711 1.8224v1.4e-4c-0.93043 1.3535-1.3476 3.8795-1.3476 8.8166v6.9492l0.0465 0.0465 9.3761-1e-3 0.0464-0.04856-0.33487-7.4503h1.2e-4c-0.16699-4.4265-0.75061-8.046-1.4337-8.818h-1.4e-4c-0.73216-0.88645-1.7967-1.3169-2.8817-1.3169z"/> </g> <g fill="#fdbf21"> <path d="m773.03 1083c-0.05284 0-0.1034 0.0209-0.1407 0.0582-0.0374 0.0374-0.0584 0.088-0.0584 0.1408v237.76c0 0.0527 0.021 0.1034 0.0584 0.1407 0.0373 0.0374 0.08786 0.0583 0.1407 0.0583l17.162-1e-3 17.162 1e-4c0.05276 0 0.10339-0.0209 0.14076-0.0582 0.03734-0.0374 0.0582-0.088 0.0582-0.1408v-237.75c0-0.1099-0.0891-0.199-0.1991-0.199l-17.162-1e-3 -17.162-1e-4z"/> </g> <g fill="#67b4c3"> <path d="m790.03 1048.8c-6.1739 0-6.9964 0.1577-7.9497 1.8044l-0.00266 0.0049c-1.0077 2.0155-7.4603 24.047-7.4603 25.658 0 0.9602 3.9672 1.1812 16.082 1.1813 13.242 0 15.648-0.0377 15.648-1.2151 0-0.1297-0.02942-0.2667-0.0719-0.411l-9.5e-4 -0.0032c-0.2499-0.7492-2.0078-6.86-3.8495-13.557l-4e-4 -1e-3c-1.9167-6.6671-3.9349-12.416-4.4746-12.776l-0.0055-0.0035c-0.6129-0.3503-4.161-0.6818-7.9153-0.6818z"/> <path d="m772.95 1327.6-0.08474 0.0866 0.2511 11.469 0.25124 11.553 0.08335 0.0829 16.994 0.2513h4.6e-4l16.911 0.1673 0.08543-0.0847v-23.44l-0.08459-0.0848-17.162-1e-4z"/> </g> <g fill="#ffd581"> <path d="m776.22 1357.6c-0.05715 0-0.1117 0.0232-0.15135 0.0644-0.0397 0.0411-0.06093 0.0965-0.059 0.1535l0.25124 7.1159 1.2e-4 0.0034c0.33509 6.4492 0.58631 7.3598 2.7402 9.514l0.0011 0.0011c2.3274 2.3275 2.7562 2.4046 11.263 2.4046h0.01844l8.8739 1e-4c0.06056 0 0.11806-0.0261 0.15806-0.0715l2.4278-2.7626c2.3128-2.5702 2.4802-3.3085 2.4802-9.515v-6.6973c0-0.1162-0.09426-0.2104-0.2105-0.2104l-13.897-2e-4z"/> </g> <path d="m791.34 1029.6c-0.45213 0-1.5174 2.4689-2.6241 6.0106l-2.1767 6.9482 0.05406 0.0792 3.7672 0.2513c0.7438 0.0595 1.4628 0.0872 2.0979 0.0872 1.137 0 2.0337-0.0873 2.2189-0.2725 0.2838-0.2838-0.244-3.1052-1.0725-6.1701l-1e-3 -0.0035-3.5e-4 -0.0011h1.2e-4c-0.83167-3.16-1.7487-6.1665-2.0925-6.7818h-8.4e-4c-0.0304-0.0811-0.08363-0.1475-0.1702-0.1475z"/> <g fill="#50a7c1"> <path d="m863.03 987.62-14.65 1.3e-4c-0.0862 0-0.156 0.06994-0.156 0.156l1e-4 125.99-1e-4 125.99c0 0.0414 0.0165 0.081 0.04565 0.1103 0.0293 0.0293 0.06895 0.0457 0.11035 0.0457l14.65-1e-4 14.65 1e-4c0.0414 0 0.08105-0.0164 0.1102-0.0457 0.0293-0.0293 0.0458-0.0689 0.0458-0.1103v-251.98c0-0.08606-0.06995-0.156-0.156-0.156l-14.65-1.3e-4z"/> </g> <g fill="#fdbf21"> <path d="m862.53 1245.5c-10.512 0-14.003 0.2013-14.003 0.9831 0 0.0468 0.0117 0.0932 0.031 0.1369h-8.5e-4c0.19935 0.6946 2.9406 10.081 6.1086 20.919h-1.5e-4l5.6924 19.924 0.0791 0.0596 2.5952-1e-4 2.5114 1e-4 0.079-0.0596 5.6926-19.924v-1e-4c3.0944-10.872 5.6121-20.35 5.6121-20.951 0-0.8623-3.6085-1.0867-14.397-1.0867z"/> <path d="m863.2 961.76c-12.339 1.5e-4 -14.882 2.4542-14.882 14.296v5.861c0 0.0354 0.0287 0.0641 0.0641 0.0641 0.0038 0 0.0076-3e-4 0.01123-1e-3h-0.00843l14.647-1e-4 14.65 1e-4 0.0641-0.0641v-3.6836c0-6.6971-1.5051-12.5-3.872-14.614-1.8634-1.694-3.0638-1.8584-10.675-1.8584z"/> <path d="m885.21 987.71c-0.0271 0-0.0493 0.01136-0.0658 0.02503-0.599 0.49683-0.8354 17.345-0.8354 53.617 0 29.093 0.2435 53 0.4984 53.592v1e-4c2.3e-4 1e-3 0.0184 0.0494 0.068 0.0494 1.7182 0 5.4166-3.8898 6.5888-6.737l2.5e-4 -6e-4c1.1782-2.9454 1.3442-8.9925 1.3442-49.081 0-29.703-0.333-46.221-0.84323-47.326l-0.00317-0.0061c-0.51026-0.8505-2.0272-2.1969-3.375-2.8707-1.3347-0.66736-2.8568-1.2625-3.3771-1.2625z"/> </g> <path d="m863.45 941.68c-3.2324 1e-4 -4.235 1.9809-4.235 8.3369v5.1067l0.04908 0.0492 4.1859 8.4e-4 4.1856-9.8e-4 0.0491-0.04919v-5.1067c0-2.7627-0.418-5.786-0.84156-6.7174l-0.00234-0.00454c-0.5974-1.0242-1.7888-1.6149-3.3908-1.6149z"/> <g fill="#f5b53c"> <path d="m178.24 820.69c-0.02249 0-0.04391 0.01147-0.05631 0.031l-1.5898 2.5101-0.0018 0.0027c-0.92187 1.3406-2.9275 4.1817-4.5147 6.103l-7.6e-4 9.6e-4 -2.93 3.6835-0.01386 0.0508 15.236 107.66v1e-4c8.4544 59.264 15.571 108.67 15.908 109.76 0.15857 0.5547 0.32443 0.9773 0.66358 0.9773 0.61419 0 1.7181-1.5215 4.3945-5.4802l2.4e-4 -4e-4c2.6752-4.013 4.3644-7.3797 4.3644-8.8271 0-1.3458-2.0943-16.422-4.6051-33.663l-6e-5 -4.7e-4c-1.884-12.458-4.5554-30.607-6.8429-46.147l-2.3657-16.053-8.2262-55.806-2.5731-17.445c-3.4307-23.262-6.3604-43.435-6.5294-44.785l-0.25113-2.5115c-0.00284-0.0282-0.02329-0.0516-0.05097-0.0581-0.00509-0.0012-0.01022-0.0018-0.01532-0.0018z"/> </g> </svg>