<?xml version="1.0" standalone="no"?>
<!DOCTYPE svg PUBLIC "-//W3C//DTD SVG 20010904//EN"
 "http://www.w3.org/TR/2001/REC-SVG-20010904/DTD/svg10.dtd">
<svg version="1.0" xmlns="http://www.w3.org/2000/svg"
 width="80.691390pt" height="77.380384pt" viewBox="0 0 80.691390 77.380384"
 preserveAspectRatio="xMidYMid meet">
<metadata>
Created by potrace 1.12, written by Peter Selinger 2001-2015
</metadata>
<g transform="translate(-1.000000,77.207655) scale(0.100000,-0.100000)"
fill="#000000" stroke="none">
<path d="M298 770 c-61 -11 -81 -36 -76 -95 4 -47 2 -52 -26 -70 -38 -25 -72
-85 -86 -152 -6 -29 -15 -53 -20 -53 -12 0 -40 29 -40 42 0 39 72 126 150 181
14 9 1 6 -28 -8 -93 -45 -162 -121 -162 -178 0 -33 35 -75 71 -84 16 -5 29
-11 29 -15 0 -46 -3 -52 -10 -23 -6 23 -8 13 -9 -41 -2 -140 51 -233 127 -220
19 3 45 15 57 26 22 20 25 21 53 6 39 -20 114 -20 178 -1 55 16 73 5 50 -30
-10 -15 -27 -21 -63 -23 -46 -3 -74 5 -167 43 -14 6 -17 5 -11 -4 4 -7 35 -26
69 -42 83 -39 171 -41 206 -4 19 20 22 32 18 72 -4 45 -2 49 26 68 39 25 72
85 87 153 10 52 11 53 32 39 47 -32 12 -105 -88 -182 -61 -48 -64 -55 -12 -29
150 76 211 201 124 254 -18 11 -39 20 -48 20 -12 0 -15 7 -11 28 l6 27 8 -25
c4 -15 6 12 4 66 -3 74 -8 100 -27 134 -43 76 -95 88 -157 35 -26 -22 -30 -23
-44 -8 -24 23 -96 27 -168 9 -69 -18 -89 -12 -71 23 22 41 95 40 203 -4 71
-29 61 -9 -14 27 -72 35 -116 45 -160 38z m184 -127 c19 -19 20 -25 9 -51 -7
-16 -27 -44 -46 -62 l-33 -32 -67 66 c-37 36 -65 71 -63 78 12 34 166 34 200
1z m185 5 c24 -27 53 -106 53 -146 0 -24 -2 -23 -20 15 -10 24 -40 63 -65 88
-26 24 -44 49 -40 55 11 18 51 11 72 -12z m-38 -74 c68 -95 65 -154 -8 -154
-53 0 -101 18 -101 39 0 23 28 129 40 152 16 29 25 24 69 -37z m-354 -28 c14
-19 28 -50 32 -69 5 -34 5 -35 -51 -56 -64 -24 -136 -28 -136 -8 0 23 49 117
74 142 33 33 50 32 81 -9z m173 -155 c5 -32 -23 -54 -49 -40 -19 10 -26 49
-12 63 4 4 19 6 33 4 18 -2 26 -10 28 -27z m262 -35 c0 -52 -78 -166 -113
-166 -27 0 -66 54 -74 103 l-5 35 58 20 c71 25 134 28 134 8z m-444 -17 c30
-8 44 -17 44 -28 0 -29 -26 -125 -41 -154 l-15 -29 -34 38 c-42 49 -73 119
-66 149 5 21 15 26 59 34 5 0 28 -4 53 -10z m-70 -179 c24 -22 44 -42 44 -45
0 -10 -40 -24 -55 -19 -25 10 -64 87 -71 140 l-6 49 22 -42 c12 -23 41 -60 66
-83z m264 69 c45 -37 96 -106 86 -117 -4 -4 -48 -7 -96 -7 -108 0 -130 13
-111 66 12 34 57 89 73 89 5 0 27 -14 48 -31z"/>
</g>
</svg>
